<svg width="1920" height="3264" viewBox="0 0 1920 3264" fill="none" xmlns="http://www.w3.org/2000/svg">
<rect width="1920" height="3264" fill="white"/>
<path d="M333.324 143.869C332.25 136.114 326.284 131.614 318.545 131.614C309.426 131.614 302.557 138.261 302.557 149.545C302.557 160.812 309.341 167.477 318.545 167.477C326.847 167.477 332.352 162.108 333.324 155.443L326.949 155.409C326.148 159.5 322.807 161.801 318.631 161.801C312.972 161.801 308.915 157.557 308.915 149.545C308.915 141.67 312.938 137.29 318.648 137.29C322.892 137.29 326.216 139.693 326.949 143.869H333.324ZM349.303 167.511C356.973 167.511 361.848 162.108 361.848 154.011C361.848 145.898 356.973 140.477 349.303 140.477C341.632 140.477 336.757 145.898 336.757 154.011C336.757 162.108 341.632 167.511 349.303 167.511ZM349.337 162.568C345.093 162.568 343.013 158.784 343.013 153.994C343.013 149.205 345.093 145.369 349.337 145.369C353.513 145.369 355.593 149.205 355.593 153.994C355.593 158.784 353.513 162.568 349.337 162.568ZM372.296 132.091H366.125V167H372.296V132.091ZM389.102 167.511C396.772 167.511 401.647 162.108 401.647 154.011C401.647 145.898 396.772 140.477 389.102 140.477C381.431 140.477 376.556 145.898 376.556 154.011C376.556 162.108 381.431 167.511 389.102 167.511ZM389.136 162.568C384.891 162.568 382.812 158.784 382.812 153.994C382.812 149.205 384.891 145.369 389.136 145.369C393.312 145.369 395.391 149.205 395.391 153.994C395.391 158.784 393.312 162.568 389.136 162.568ZM405.924 167H412.095V151.608C412.095 148.284 414.6 145.932 417.992 145.932C419.032 145.932 420.328 146.119 420.856 146.29V140.614C420.294 140.511 419.322 140.443 418.64 140.443C415.64 140.443 413.134 142.148 412.18 145.182H411.907V140.818H405.924V167Z" fill="#1D2026"/>
<path d="M311.179 246.099H313.864C313.416 243.244 310.945 241.256 307.727 241.256C303.92 241.256 301.065 244.054 301.065 248.741C301.065 253.344 303.793 256.199 307.805 256.199C311.406 256.199 313.984 253.884 313.984 250.134V248.386H308.082V250.446H311.435C311.392 252.52 310.007 253.834 307.82 253.834C305.384 253.834 303.714 252.009 303.714 248.713C303.714 245.439 305.412 243.621 307.763 243.621C309.517 243.621 310.71 244.558 311.179 246.099ZM316.419 256H318.99V249.587C318.99 248.202 320.034 247.222 321.447 247.222C321.88 247.222 322.42 247.3 322.64 247.371V245.006C322.406 244.963 322.001 244.935 321.717 244.935C320.467 244.935 319.423 245.645 319.025 246.909H318.912V245.091H316.419V256ZM327.273 256.22C328.984 256.22 330.007 255.418 330.476 254.501H330.561V256H333.033V248.699C333.033 245.815 330.682 244.949 328.601 244.949C326.307 244.949 324.545 245.972 323.977 247.96L326.378 248.301C326.634 247.555 327.358 246.916 328.615 246.916C329.808 246.916 330.462 247.527 330.462 248.599V248.642C330.462 249.381 329.688 249.416 327.763 249.622C325.646 249.849 323.622 250.482 323.622 252.939C323.622 255.084 325.192 256.22 327.273 256.22ZM327.94 254.331C326.868 254.331 326.101 253.841 326.101 252.896C326.101 251.909 326.96 251.497 328.111 251.334C328.786 251.241 330.135 251.071 330.469 250.801V252.087C330.469 253.301 329.489 254.331 327.94 254.331ZM336.825 260.091C338.828 260.091 339.986 259.061 340.604 257.321L344.986 245.105L342.237 245.091L339.716 253.33H339.602L337.088 245.091H334.361L338.317 256.227L338.097 256.817C337.621 258.06 336.868 258.145 335.746 257.818L335.149 259.821C335.497 259.963 336.122 260.091 336.825 260.091ZM359.75 245.453H362.285C362.235 242.996 360.14 241.256 357.044 241.256C353.99 241.256 351.696 242.974 351.703 245.545C351.703 247.634 353.187 248.834 355.581 249.452L357.235 249.878C358.805 250.276 359.842 250.766 359.849 251.895C359.842 253.138 358.663 253.969 356.944 253.969C355.297 253.969 354.018 253.23 353.912 251.703H351.319C351.426 254.594 353.578 256.22 356.966 256.22C360.453 256.22 362.477 254.48 362.484 251.916C362.477 249.395 360.396 248.244 358.208 247.726L356.845 247.385C355.652 247.101 354.359 246.597 354.373 245.382C354.38 244.288 355.36 243.486 357.008 243.486C358.578 243.486 359.615 244.217 359.75 245.453ZM369.478 256.213C372.219 256.213 373.967 254.587 374.151 252.271H371.694C371.474 253.443 370.629 254.118 369.499 254.118C367.894 254.118 366.857 252.776 366.857 250.545C366.857 248.344 367.915 247.023 369.499 247.023C370.735 247.023 371.495 247.818 371.694 248.869H374.151C373.974 246.504 372.127 244.949 369.464 244.949C366.268 244.949 364.251 247.257 364.251 250.588C364.251 253.891 366.218 256.213 369.478 256.213ZM379.402 256.22C381.113 256.22 382.136 255.418 382.605 254.501H382.69V256H385.162V248.699C385.162 245.815 382.811 244.949 380.73 244.949C378.436 244.949 376.674 245.972 376.106 247.96L378.507 248.301C378.762 247.555 379.487 246.916 380.744 246.916C381.937 246.916 382.591 247.527 382.591 248.599V248.642C382.591 249.381 381.816 249.416 379.892 249.622C377.775 249.849 375.751 250.482 375.751 252.939C375.751 255.084 377.321 256.22 379.402 256.22ZM380.069 254.331C378.997 254.331 378.23 253.841 378.23 252.896C378.23 251.909 379.089 251.497 380.24 251.334C380.914 251.241 382.264 251.071 382.598 250.801V252.087C382.598 253.301 381.618 254.331 380.069 254.331ZM390.318 241.455H387.747V256H390.318V241.455ZM397.791 256.213C400.334 256.213 402.081 254.97 402.536 253.074L400.135 252.804C399.787 253.727 398.935 254.21 397.827 254.21C396.165 254.21 395.064 253.116 395.043 251.249H402.642V250.46C402.642 246.632 400.341 244.949 397.656 244.949C394.531 244.949 392.493 247.243 392.493 250.609C392.493 254.033 394.503 256.213 397.791 256.213ZM395.05 249.516C395.128 248.124 396.158 246.952 397.692 246.952C399.169 246.952 400.163 248.031 400.178 249.516H395.05Z" fill="#1D2026"/>
<rect width="200" height="180" transform="translate(300 286)" fill="#1D2026"/>
<path d="M328.365 426.679C326.227 426.659 324.83 428.195 324.83 430.124C324.835 432.068 326.242 433.47 328.007 433.47C329.086 433.47 330.011 432.943 330.533 432.088H330.612C330.607 434.43 329.727 435.797 328.236 435.797C327.261 435.797 326.635 435.2 326.436 434.33H324.92C325.143 435.976 326.416 437.139 328.236 437.139C330.602 437.139 332.084 435.106 332.084 431.541C332.079 427.822 330.18 426.694 328.365 426.679ZM328.37 427.972C329.548 427.972 330.418 428.971 330.418 430.089C330.423 431.223 329.504 432.217 328.34 432.217C327.172 432.217 326.327 431.283 326.322 430.104C326.322 428.921 327.202 427.972 328.37 427.972ZM337.285 437.169C339.636 437.169 341.013 435.25 341.013 431.914C341.013 428.603 339.616 426.679 337.285 426.679C334.948 426.679 333.556 428.598 333.551 431.914C333.551 435.245 334.928 437.164 337.285 437.169ZM337.285 435.842C335.907 435.842 335.077 434.46 335.077 431.914C335.082 429.379 335.912 427.982 337.285 427.982C338.652 427.982 339.487 429.379 339.487 431.914C339.487 434.46 338.657 435.842 337.285 435.842ZM346.182 437.169C348.533 437.169 349.91 435.25 349.91 431.914C349.91 428.603 348.513 426.679 346.182 426.679C343.845 426.679 342.453 428.598 342.448 431.914C342.448 435.245 343.825 437.164 346.182 437.169ZM346.182 435.842C344.805 435.842 343.974 434.46 343.974 431.914C343.979 429.379 344.809 427.982 346.182 427.982C347.549 427.982 348.384 429.379 348.384 431.914C348.384 434.46 347.554 435.842 346.182 435.842Z" fill="white"/>
<rect width="200" height="180" transform="translate(524 286)" fill="#363B47"/>
<path d="M552.42 437.139C554.538 437.139 556.034 435.936 556.044 434.286C556.034 433.003 555.134 431.924 553.996 431.72V431.661C554.985 431.422 555.656 430.492 555.666 429.393C555.656 427.837 554.284 426.679 552.42 426.679C550.536 426.679 549.163 427.837 549.173 429.393C549.163 430.487 549.835 431.422 550.844 431.661V431.72C549.685 431.924 548.786 433.003 548.795 434.286C548.786 435.936 550.282 437.139 552.42 437.139ZM552.42 435.881C551.147 435.881 550.342 435.205 550.352 434.186C550.342 433.127 551.217 432.371 552.42 432.371C553.603 432.371 554.478 433.127 554.488 434.186C554.478 435.205 553.678 435.881 552.42 435.881ZM552.42 431.143C551.391 431.143 550.66 430.492 550.67 429.523C550.66 428.568 551.366 427.937 552.42 427.937C553.454 427.937 554.16 428.568 554.17 429.523C554.16 430.492 553.434 431.143 552.42 431.143ZM561.23 437.169C563.581 437.169 564.959 435.25 564.959 431.914C564.959 428.603 563.562 426.679 561.23 426.679C558.893 426.679 557.501 428.598 557.496 431.914C557.496 435.245 558.873 437.164 561.23 437.169ZM561.23 435.842C559.853 435.842 559.022 434.46 559.022 431.914C559.027 429.379 559.858 427.982 561.23 427.982C562.597 427.982 563.432 429.379 563.432 431.914C563.432 434.46 562.602 435.842 561.23 435.842ZM570.127 437.169C572.479 437.169 573.856 435.25 573.856 431.914C573.856 428.603 572.459 426.679 570.127 426.679C567.79 426.679 566.398 428.598 566.393 431.914C566.393 435.245 567.77 437.164 570.127 437.169ZM570.127 435.842C568.75 435.842 567.92 434.46 567.92 431.914C567.925 429.379 568.755 427.982 570.127 427.982C571.494 427.982 572.329 429.379 572.329 431.914C572.329 434.46 571.499 435.842 570.127 435.842Z" fill="white"/>
<rect width="200" height="180" transform="translate(748 286)" fill="#4E5566"/>
<path d="M773.322 437H774.928L779.358 428.18V426.818H772.626V428.136H777.767V428.21L773.322 437ZM784.273 437.169C786.624 437.169 788.002 435.25 788.002 431.914C788.002 428.603 786.604 426.679 784.273 426.679C781.936 426.679 780.544 428.598 780.539 431.914C780.539 435.245 781.916 437.164 784.273 437.169ZM784.273 435.842C782.896 435.842 782.065 434.46 782.065 431.914C782.07 429.379 782.901 427.982 784.273 427.982C785.64 427.982 786.475 429.379 786.475 431.914C786.475 434.46 785.645 435.842 784.273 435.842ZM793.17 437.169C795.521 437.169 796.899 435.25 796.899 431.914C796.899 428.603 795.502 426.679 793.17 426.679C790.833 426.679 789.441 428.598 789.436 431.914C789.436 435.245 790.813 437.164 793.17 437.169ZM793.17 435.842C791.793 435.842 790.963 434.46 790.963 431.914C790.968 429.379 791.798 427.982 793.17 427.982C794.537 427.982 795.372 429.379 795.372 431.914C795.372 434.46 794.542 435.842 793.17 435.842Z" fill="white"/>
<rect width="200" height="180" transform="translate(972 286)" fill="#6E7485"/>
<path d="M1000.53 437.139C1002.66 437.159 1004.07 435.628 1004.07 433.674C1004.07 431.725 1002.66 430.328 1000.89 430.328C999.818 430.328 998.888 430.845 998.366 431.705H998.292C998.297 429.393 999.172 428.021 1000.66 428.021C1001.64 428.021 1002.26 428.618 1002.47 429.463H1003.98C1003.75 427.852 1002.48 426.679 1000.66 426.679C998.297 426.679 996.82 428.712 996.82 432.252C996.815 436.001 998.724 437.124 1000.53 437.139ZM1000.53 435.847C999.346 435.847 998.481 434.852 998.481 433.709C998.486 432.57 999.391 431.576 1000.56 431.576C1001.73 431.576 1002.58 432.516 1002.58 433.694C1002.58 434.897 1001.69 435.847 1000.53 435.847ZM1009.28 437.169C1011.64 437.169 1013.01 435.25 1013.01 431.914C1013.01 428.603 1011.62 426.679 1009.28 426.679C1006.95 426.679 1005.56 428.598 1005.55 431.914C1005.55 435.245 1006.93 437.164 1009.28 437.169ZM1009.28 435.842C1007.91 435.842 1007.08 434.46 1007.08 431.914C1007.08 429.379 1007.91 427.982 1009.28 427.982C1010.65 427.982 1011.49 429.379 1011.49 431.914C1011.49 434.46 1010.66 435.842 1009.28 435.842ZM1018.18 437.169C1020.53 437.169 1021.91 435.25 1021.91 431.914C1021.91 428.603 1020.51 426.679 1018.18 426.679C1015.84 426.679 1014.45 428.598 1014.45 431.914C1014.45 435.245 1015.83 437.164 1018.18 437.169ZM1018.18 435.842C1016.8 435.842 1015.97 434.46 1015.97 431.914C1015.98 429.379 1016.81 427.982 1018.18 427.982C1019.55 427.982 1020.38 429.379 1020.38 431.914C1020.38 434.46 1019.55 435.842 1018.18 435.842Z" fill="white"/>
<rect width="200" height="180" transform="translate(1196 286)" fill="#8C94A3"/>
<path d="M1224.34 437.139C1226.39 437.139 1227.85 435.692 1227.85 433.709C1227.85 431.74 1226.48 430.308 1224.62 430.308C1223.87 430.308 1223.17 430.597 1222.77 430.984H1222.71L1223.03 428.136H1227.35V426.818H1221.75L1221.18 431.949L1222.59 432.158C1222.97 431.815 1223.66 431.581 1224.28 431.581C1225.48 431.591 1226.36 432.496 1226.36 433.739C1226.36 434.962 1225.51 435.847 1224.34 435.847C1223.36 435.847 1222.58 435.22 1222.5 434.345H1221C1221.06 435.966 1222.47 437.139 1224.34 437.139ZM1233.07 437.169C1235.42 437.169 1236.79 435.25 1236.79 431.914C1236.79 428.603 1235.4 426.679 1233.07 426.679C1230.73 426.679 1229.34 428.598 1229.33 431.914C1229.33 435.245 1230.71 437.164 1233.07 437.169ZM1233.07 435.842C1231.69 435.842 1230.86 434.46 1230.86 431.914C1230.86 429.379 1231.69 427.982 1233.07 427.982C1234.43 427.982 1235.27 429.379 1235.27 431.914C1235.27 434.46 1234.44 435.842 1233.07 435.842ZM1241.96 437.169C1244.31 437.169 1245.69 435.25 1245.69 431.914C1245.69 428.603 1244.29 426.679 1241.96 426.679C1239.63 426.679 1238.23 428.598 1238.23 431.914C1238.23 435.245 1239.61 437.164 1241.96 437.169ZM1241.96 435.842C1240.59 435.842 1239.76 434.46 1239.76 431.914C1239.76 429.379 1240.59 427.982 1241.96 427.982C1243.33 427.982 1244.17 429.379 1244.17 431.914C1244.17 434.46 1243.34 435.842 1241.96 435.842Z" fill="white"/>
<rect width="200" height="180" transform="translate(1420 286)" fill="#A1A5B3"/>
<path d="M1444.77 435.011H1449.59V437H1451.06V435.011H1452.41V433.709H1451.06V426.818H1449.17L1444.77 433.768V435.011ZM1449.6 433.709H1446.38V433.629L1449.52 428.648H1449.6V433.709ZM1457.54 437.169C1459.9 437.169 1461.27 435.25 1461.27 431.914C1461.27 428.603 1459.88 426.679 1457.54 426.679C1455.21 426.679 1453.82 428.598 1453.81 431.914C1453.81 435.245 1455.19 437.164 1457.54 437.169ZM1457.54 435.842C1456.17 435.842 1455.34 434.46 1455.34 431.914C1455.34 429.379 1456.17 427.982 1457.54 427.982C1458.91 427.982 1459.75 429.379 1459.75 431.914C1459.75 434.46 1458.92 435.842 1457.54 435.842ZM1466.44 437.169C1468.79 437.169 1470.17 435.25 1470.17 431.914C1470.17 428.603 1468.77 426.679 1466.44 426.679C1464.1 426.679 1462.71 428.598 1462.71 431.914C1462.71 435.245 1464.08 437.164 1466.44 437.169ZM1466.44 435.842C1465.06 435.842 1464.23 434.46 1464.23 431.914C1464.24 429.379 1465.07 427.982 1466.44 427.982C1467.81 427.982 1468.64 429.379 1468.64 431.914C1468.64 434.46 1467.81 435.842 1466.44 435.842Z" fill="white"/>
<rect width="200" height="180" transform="translate(300 490)" fill="#B7BAC7"/>
<path d="M328.524 641.139C330.602 641.139 332.129 639.896 332.124 638.206C332.129 636.918 331.348 635.994 329.996 635.785V635.705C331.06 635.432 331.751 634.597 331.746 633.453C331.751 631.957 330.523 630.679 328.564 630.679C326.695 630.679 325.193 631.808 325.143 633.463H326.63C326.665 632.528 327.545 631.962 328.544 631.962C329.583 631.962 330.264 632.593 330.259 633.533C330.264 634.517 329.474 635.163 328.345 635.163H327.485V636.416H328.345C329.757 636.416 330.572 637.132 330.572 638.156C330.572 639.146 329.712 639.817 328.514 639.817C327.411 639.817 326.55 639.25 326.491 638.345H324.93C324.994 640.006 326.466 641.139 328.524 641.139ZM337.408 641.169C339.759 641.169 341.136 639.25 341.136 635.914C341.136 632.603 339.739 630.679 337.408 630.679C335.071 630.679 333.679 632.598 333.674 635.914C333.674 639.245 335.051 641.164 337.408 641.169ZM337.408 639.842C336.03 639.842 335.2 638.46 335.2 635.914C335.205 633.379 336.035 631.982 337.408 631.982C338.775 631.982 339.61 633.379 339.61 635.914C339.61 638.46 338.78 639.842 337.408 639.842ZM346.305 641.169C348.656 641.169 350.033 639.25 350.033 635.914C350.033 632.603 348.636 630.679 346.305 630.679C343.968 630.679 342.576 632.598 342.571 635.914C342.571 639.245 343.948 641.164 346.305 641.169ZM346.305 639.842C344.928 639.842 344.097 638.46 344.097 635.914C344.102 633.379 344.933 631.982 346.305 631.982C347.672 631.982 348.507 633.379 348.507 635.914C348.507 638.46 347.677 639.842 346.305 639.842Z" fill="#1D2026"/>
<rect width="200" height="180" transform="translate(524 490)" fill="#CED1D9"/>
<path d="M548.979 641H555.681V639.683H551.097V639.608L553.121 637.49C554.985 635.606 555.517 634.706 555.517 633.567C555.517 631.932 554.185 630.679 552.266 630.679C550.362 630.679 548.969 631.912 548.969 633.771H550.436C550.431 632.678 551.137 631.962 552.236 631.962C553.27 631.962 554.055 632.598 554.055 633.612C554.055 634.512 553.518 635.158 552.425 636.317L548.979 639.886V641ZM560.97 641.169C563.322 641.169 564.699 639.25 564.699 635.914C564.699 632.603 563.302 630.679 560.97 630.679C558.633 630.679 557.241 632.598 557.236 635.914C557.236 639.245 558.614 641.164 560.97 641.169ZM560.97 639.842C559.593 639.842 558.763 638.46 558.763 635.914C558.768 633.379 559.598 631.982 560.97 631.982C562.337 631.982 563.172 633.379 563.172 635.914C563.172 638.46 562.342 639.842 560.97 639.842ZM569.867 641.169C572.219 641.169 573.596 639.25 573.596 635.914C573.596 632.603 572.199 630.679 569.867 630.679C567.531 630.679 566.139 632.598 566.134 635.914C566.134 639.245 567.511 641.164 569.867 641.169ZM569.867 639.842C568.49 639.842 567.66 638.46 567.66 635.914C567.665 633.379 568.495 631.982 569.867 631.982C571.234 631.982 572.07 633.379 572.07 635.914C572.07 638.46 571.239 639.842 569.867 639.842Z" fill="#1D2026"/>
<rect width="200" height="180" transform="translate(748 490)" fill="#E9EAF0"/>
<path d="M776.842 630.818H775.346L772.805 632.479V633.95L775.241 632.359H775.301V641H776.842V630.818ZM783.001 641.169C785.353 641.169 786.73 639.25 786.73 635.914C786.73 632.603 785.333 630.679 783.001 630.679C780.665 630.679 779.273 632.598 779.268 635.914C779.268 639.245 780.645 641.164 783.001 641.169ZM783.001 639.842C781.624 639.842 780.794 638.46 780.794 635.914C780.799 633.379 781.629 631.982 783.001 631.982C784.369 631.982 785.204 633.379 785.204 635.914C785.204 638.46 784.373 639.842 783.001 639.842ZM791.898 641.169C794.25 641.169 795.627 639.25 795.627 635.914C795.627 632.603 794.23 630.679 791.898 630.679C789.562 630.679 788.17 632.598 788.165 635.914C788.165 639.245 789.542 641.164 791.898 641.169ZM791.898 639.842C790.521 639.842 789.691 638.46 789.691 635.914C789.696 633.379 790.526 631.982 791.898 631.982C793.266 631.982 794.101 633.379 794.101 635.914C794.101 638.46 793.271 639.842 791.898 639.842Z" fill="#1D2026"/>
<rect width="200" height="180" transform="translate(972 490)" fill="#F5F7FA"/>
<path d="M1000.34 641.139C1002.39 641.139 1003.85 639.692 1003.85 637.709C1003.85 635.74 1002.48 634.308 1000.62 634.308C999.868 634.308 999.167 634.597 998.769 634.984H998.71L999.033 632.136H1003.35V630.818H997.755L997.183 635.949L998.59 636.158C998.973 635.815 999.659 635.581 1000.28 635.581C1001.48 635.591 1002.36 636.496 1002.36 637.739C1002.36 638.962 1001.51 639.847 1000.34 639.847C999.356 639.847 998.575 639.22 998.496 638.345H997.004C997.064 639.966 998.471 641.139 1000.34 641.139ZM1009.07 641.169C1011.42 641.169 1012.79 639.25 1012.79 635.914C1012.79 632.603 1011.4 630.679 1009.07 630.679C1006.73 630.679 1005.34 632.598 1005.33 635.914C1005.33 639.245 1006.71 641.164 1009.07 641.169ZM1009.07 639.842C1007.69 639.842 1006.86 638.46 1006.86 635.914C1006.86 633.379 1007.69 631.982 1009.07 631.982C1010.43 631.982 1011.27 633.379 1011.27 635.914C1011.27 638.46 1010.44 639.842 1009.07 639.842Z" fill="#1D2026"/>
<rect x="1196.5" y="490.5" width="199" height="179" fill="white"/>
<rect x="1196.5" y="490.5" width="199" height="179" stroke="#1D2026"/>
<path d="M1223.11 641H1224.66L1226.81 633.374H1226.89L1229.03 641H1230.57L1233.4 630.818H1231.78L1229.8 638.708H1229.71L1227.65 630.818H1226.05L1223.98 638.703H1223.89L1221.9 630.818H1220.29L1223.11 641ZM1236.03 636.466C1236.03 635.248 1236.8 634.552 1237.86 634.552C1238.89 634.552 1239.5 635.203 1239.5 636.322V641H1240.98V636.143C1240.98 634.239 1239.94 633.264 1238.37 633.264C1237.18 633.264 1236.46 633.781 1236.11 634.607H1236.01V630.818H1234.54V641H1236.03V636.466ZM1242.83 641H1244.31V633.364H1242.83V641ZM1243.58 632.185C1244.09 632.185 1244.52 631.788 1244.52 631.3C1244.52 630.813 1244.09 630.411 1243.58 630.411C1243.06 630.411 1242.64 630.813 1242.64 631.3C1242.64 631.788 1243.06 632.185 1243.58 632.185ZM1249.74 633.364H1248.17V631.534H1246.69V633.364H1245.57V634.557H1246.69V639.066C1246.68 640.453 1247.74 641.124 1248.91 641.099C1249.38 641.094 1249.7 641.005 1249.88 640.94L1249.61 639.712C1249.51 639.732 1249.33 639.777 1249.09 639.777C1248.6 639.777 1248.17 639.618 1248.17 638.758V634.557H1249.74V633.364ZM1254.45 641.154C1256.12 641.154 1257.29 640.334 1257.63 639.091L1256.23 638.837C1255.96 639.558 1255.31 639.926 1254.47 639.926C1253.19 639.926 1252.34 639.101 1252.3 637.629H1257.73V637.102C1257.73 634.343 1256.08 633.264 1254.35 633.264C1252.22 633.264 1250.82 634.885 1250.82 637.232C1250.82 639.603 1252.2 641.154 1254.45 641.154ZM1252.3 636.516C1252.36 635.432 1253.15 634.492 1254.36 634.492C1255.51 634.492 1256.27 635.347 1256.27 636.516H1252.3Z" fill="#1D2026"/>
<path d="M301.435 750H304.07V745.085H306.854C310.213 745.085 312.017 743.068 312.017 740.27C312.017 737.493 310.234 735.455 306.889 735.455H301.435V750ZM304.07 742.919V737.656H306.484C308.459 737.656 309.332 738.722 309.332 740.27C309.332 741.818 308.459 742.919 306.499 742.919H304.07ZM314.192 750H316.763V743.587C316.763 742.202 317.807 741.222 319.221 741.222C319.654 741.222 320.194 741.3 320.414 741.371V739.006C320.179 738.963 319.775 738.935 319.49 738.935C318.24 738.935 317.196 739.645 316.799 740.909H316.685V739.091H314.192V750ZM322.122 750H324.693V739.091H322.122V750ZM323.414 737.543C324.231 737.543 324.899 736.918 324.899 736.151C324.899 735.376 324.231 734.751 323.414 734.751C322.591 734.751 321.923 735.376 321.923 736.151C321.923 736.918 322.591 737.543 323.414 737.543ZM327.337 750H329.908V743.366C329.908 742.024 330.803 741.115 331.911 741.115C332.997 741.115 333.743 741.847 333.743 742.969V750H336.264V743.196C336.264 741.967 336.996 741.115 338.239 741.115C339.276 741.115 340.099 741.726 340.099 743.075V750H342.678V742.678C342.678 740.241 341.271 738.949 339.268 738.949C337.685 738.949 336.477 739.73 335.994 740.945H335.881C335.462 739.709 334.403 738.949 332.933 738.949C331.47 738.949 330.376 739.702 329.922 740.945H329.794V739.091H327.337V750ZM348.425 750.22C350.137 750.22 351.159 749.418 351.628 748.501H351.713V750H354.185V742.699C354.185 739.815 351.834 738.949 349.753 738.949C347.459 738.949 345.698 739.972 345.13 741.96L347.53 742.301C347.786 741.555 348.51 740.916 349.767 740.916C350.961 740.916 351.614 741.527 351.614 742.599V742.642C351.614 743.381 350.84 743.416 348.915 743.622C346.799 743.849 344.775 744.482 344.775 746.939C344.775 749.084 346.344 750.22 348.425 750.22ZM349.093 748.331C348.02 748.331 347.253 747.841 347.253 746.896C347.253 745.909 348.113 745.497 349.263 745.334C349.938 745.241 351.287 745.071 351.621 744.801V746.087C351.621 747.301 350.641 748.331 349.093 748.331ZM356.77 750H359.341V743.587C359.341 742.202 360.385 741.222 361.799 741.222C362.232 741.222 362.772 741.3 362.992 741.371V739.006C362.757 738.963 362.353 738.935 362.069 738.935C360.819 738.935 359.775 739.645 359.377 740.909H359.263V739.091H356.77V750ZM366.63 754.091C368.633 754.091 369.79 753.061 370.408 751.321L374.79 739.105L372.042 739.091L369.521 747.33H369.407L366.893 739.091H364.165L368.121 750.227L367.901 750.817C367.425 752.06 366.673 752.145 365.55 751.818L364.954 753.821C365.302 753.963 365.927 754.091 366.63 754.091Z" fill="#33140B"/>
<rect width="200" height="180" transform="translate(300 780)" fill="#33140B"/>
<path d="M328.365 920.679C326.227 920.659 324.83 922.195 324.83 924.124C324.835 926.068 326.242 927.47 328.007 927.47C329.086 927.47 330.011 926.943 330.533 926.088H330.612C330.607 928.43 329.727 929.797 328.236 929.797C327.261 929.797 326.635 929.2 326.436 928.33H324.92C325.143 929.976 326.416 931.139 328.236 931.139C330.602 931.139 332.084 929.106 332.084 925.541C332.079 921.822 330.18 920.694 328.365 920.679ZM328.37 921.972C329.548 921.972 330.418 922.971 330.418 924.089C330.423 925.223 329.504 926.217 328.34 926.217C327.172 926.217 326.327 925.283 326.322 924.104C326.322 922.921 327.202 921.972 328.37 921.972ZM337.285 931.169C339.636 931.169 341.013 929.25 341.013 925.914C341.013 922.603 339.616 920.679 337.285 920.679C334.948 920.679 333.556 922.598 333.551 925.914C333.551 929.245 334.928 931.164 337.285 931.169ZM337.285 929.842C335.907 929.842 335.077 928.46 335.077 925.914C335.082 923.379 335.912 921.982 337.285 921.982C338.652 921.982 339.487 923.379 339.487 925.914C339.487 928.46 338.657 929.842 337.285 929.842ZM346.182 931.169C348.533 931.169 349.91 929.25 349.91 925.914C349.91 922.603 348.513 920.679 346.182 920.679C343.845 920.679 342.453 922.598 342.448 925.914C342.448 929.245 343.825 931.164 346.182 931.169ZM346.182 929.842C344.805 929.842 343.974 928.46 343.974 925.914C343.979 923.379 344.809 921.982 346.182 921.982C347.549 921.982 348.384 923.379 348.384 925.914C348.384 928.46 347.554 929.842 346.182 929.842Z" fill="white"/>
<rect width="200" height="180" transform="translate(524 780)" fill="#662916"/>
<path d="M552.42 931.139C554.538 931.139 556.034 929.936 556.044 928.286C556.034 927.003 555.134 925.924 553.996 925.72V925.661C554.985 925.422 555.656 924.492 555.666 923.393C555.656 921.837 554.284 920.679 552.42 920.679C550.536 920.679 549.163 921.837 549.173 923.393C549.163 924.487 549.835 925.422 550.844 925.661V925.72C549.685 925.924 548.786 927.003 548.795 928.286C548.786 929.936 550.282 931.139 552.42 931.139ZM552.42 929.881C551.147 929.881 550.342 929.205 550.352 928.186C550.342 927.127 551.217 926.371 552.42 926.371C553.603 926.371 554.478 927.127 554.488 928.186C554.478 929.205 553.678 929.881 552.42 929.881ZM552.42 925.143C551.391 925.143 550.66 924.492 550.67 923.523C550.66 922.568 551.366 921.937 552.42 921.937C553.454 921.937 554.16 922.568 554.17 923.523C554.16 924.492 553.434 925.143 552.42 925.143ZM561.23 931.169C563.581 931.169 564.959 929.25 564.959 925.914C564.959 922.603 563.562 920.679 561.23 920.679C558.893 920.679 557.501 922.598 557.496 925.914C557.496 929.245 558.873 931.164 561.23 931.169ZM561.23 929.842C559.853 929.842 559.022 928.46 559.022 925.914C559.027 923.379 559.858 921.982 561.23 921.982C562.597 921.982 563.432 923.379 563.432 925.914C563.432 928.46 562.602 929.842 561.23 929.842ZM570.127 931.169C572.479 931.169 573.856 929.25 573.856 925.914C573.856 922.603 572.459 920.679 570.127 920.679C567.79 920.679 566.398 922.598 566.393 925.914C566.393 929.245 567.77 931.164 570.127 931.169ZM570.127 929.842C568.75 929.842 567.92 928.46 567.92 925.914C567.925 923.379 568.755 921.982 570.127 921.982C571.494 921.982 572.329 923.379 572.329 925.914C572.329 928.46 571.499 929.842 570.127 929.842Z" fill="white"/>
<rect width="200" height="180" transform="translate(748 780)" fill="#993D20"/>
<path d="M773.322 931H774.928L779.358 922.18V920.818H772.626V922.136H777.767V922.21L773.322 931ZM784.273 931.169C786.624 931.169 788.002 929.25 788.002 925.914C788.002 922.603 786.604 920.679 784.273 920.679C781.936 920.679 780.544 922.598 780.539 925.914C780.539 929.245 781.916 931.164 784.273 931.169ZM784.273 929.842C782.896 929.842 782.065 928.46 782.065 925.914C782.07 923.379 782.901 921.982 784.273 921.982C785.64 921.982 786.475 923.379 786.475 925.914C786.475 928.46 785.645 929.842 784.273 929.842ZM793.17 931.169C795.521 931.169 796.899 929.25 796.899 925.914C796.899 922.603 795.502 920.679 793.17 920.679C790.833 920.679 789.441 922.598 789.436 925.914C789.436 929.245 790.813 931.164 793.17 931.169ZM793.17 929.842C791.793 929.842 790.963 928.46 790.963 925.914C790.968 923.379 791.798 921.982 793.17 921.982C794.537 921.982 795.372 923.379 795.372 925.914C795.372 928.46 794.542 929.842 793.17 929.842Z" fill="white"/>
<rect width="200" height="180" transform="translate(972 780)" fill="#CC522B"/>
<path d="M1000.53 931.139C1002.66 931.159 1004.07 929.628 1004.07 927.674C1004.07 925.725 1002.66 924.328 1000.89 924.328C999.818 924.328 998.888 924.845 998.366 925.705H998.292C998.297 923.393 999.172 922.021 1000.66 922.021C1001.64 922.021 1002.26 922.618 1002.47 923.463H1003.98C1003.75 921.852 1002.48 920.679 1000.66 920.679C998.297 920.679 996.82 922.712 996.82 926.252C996.815 930.001 998.724 931.124 1000.53 931.139ZM1000.53 929.847C999.346 929.847 998.481 928.852 998.481 927.709C998.486 926.57 999.391 925.576 1000.56 925.576C1001.73 925.576 1002.58 926.516 1002.58 927.694C1002.58 928.897 1001.69 929.847 1000.53 929.847ZM1009.28 931.169C1011.64 931.169 1013.01 929.25 1013.01 925.914C1013.01 922.603 1011.62 920.679 1009.28 920.679C1006.95 920.679 1005.56 922.598 1005.55 925.914C1005.55 929.245 1006.93 931.164 1009.28 931.169ZM1009.28 929.842C1007.91 929.842 1007.08 928.46 1007.08 925.914C1007.08 923.379 1007.91 921.982 1009.28 921.982C1010.65 921.982 1011.49 923.379 1011.49 925.914C1011.49 928.46 1010.66 929.842 1009.28 929.842ZM1018.18 931.169C1020.53 931.169 1021.91 929.25 1021.91 925.914C1021.91 922.603 1020.51 920.679 1018.18 920.679C1015.84 920.679 1014.45 922.598 1014.45 925.914C1014.45 929.245 1015.83 931.164 1018.18 931.169ZM1018.18 929.842C1016.8 929.842 1015.97 928.46 1015.97 925.914C1015.98 923.379 1016.81 921.982 1018.18 921.982C1019.55 921.982 1020.38 923.379 1020.38 925.914C1020.38 928.46 1019.55 929.842 1018.18 929.842Z" fill="white"/>
<rect width="200" height="180" transform="translate(1196 780)" fill="#FF6636"/>
<path d="M1224.34 931.139C1226.39 931.139 1227.85 929.692 1227.85 927.709C1227.85 925.74 1226.48 924.308 1224.62 924.308C1223.87 924.308 1223.17 924.597 1222.77 924.984H1222.71L1223.03 922.136H1227.35V920.818H1221.75L1221.18 925.949L1222.59 926.158C1222.97 925.815 1223.66 925.581 1224.28 925.581C1225.48 925.591 1226.36 926.496 1226.36 927.739C1226.36 928.962 1225.51 929.847 1224.34 929.847C1223.36 929.847 1222.58 929.22 1222.5 928.345H1221C1221.06 929.966 1222.47 931.139 1224.34 931.139ZM1233.07 931.169C1235.42 931.169 1236.79 929.25 1236.79 925.914C1236.79 922.603 1235.4 920.679 1233.07 920.679C1230.73 920.679 1229.34 922.598 1229.33 925.914C1229.33 929.245 1230.71 931.164 1233.07 931.169ZM1233.07 929.842C1231.69 929.842 1230.86 928.46 1230.86 925.914C1230.86 923.379 1231.69 921.982 1233.07 921.982C1234.43 921.982 1235.27 923.379 1235.27 925.914C1235.27 928.46 1234.44 929.842 1233.07 929.842ZM1241.96 931.169C1244.31 931.169 1245.69 929.25 1245.69 925.914C1245.69 922.603 1244.29 920.679 1241.96 920.679C1239.63 920.679 1238.23 922.598 1238.23 925.914C1238.23 929.245 1239.61 931.164 1241.96 931.169ZM1241.96 929.842C1240.59 929.842 1239.76 928.46 1239.76 925.914C1239.76 923.379 1240.59 921.982 1241.96 921.982C1243.33 921.982 1244.17 923.379 1244.17 925.914C1244.17 928.46 1243.34 929.842 1241.96 929.842Z" fill="white"/>
<rect width="200" height="180" transform="translate(1420 780)" fill="#FF855E"/>
<path d="M1444.77 929.011H1449.59V931H1451.06V929.011H1452.41V927.709H1451.06V920.818H1449.17L1444.77 927.768V929.011ZM1449.6 927.709H1446.38V927.629L1449.52 922.648H1449.6V927.709ZM1457.54 931.169C1459.9 931.169 1461.27 929.25 1461.27 925.914C1461.27 922.603 1459.88 920.679 1457.54 920.679C1455.21 920.679 1453.82 922.598 1453.81 925.914C1453.81 929.245 1455.19 931.164 1457.54 931.169ZM1457.54 929.842C1456.17 929.842 1455.34 928.46 1455.34 925.914C1455.34 923.379 1456.17 921.982 1457.54 921.982C1458.91 921.982 1459.75 923.379 1459.75 925.914C1459.75 928.46 1458.92 929.842 1457.54 929.842ZM1466.44 931.169C1468.79 931.169 1470.17 929.25 1470.17 925.914C1470.17 922.603 1468.77 920.679 1466.44 920.679C1464.1 920.679 1462.71 922.598 1462.71 925.914C1462.71 929.245 1464.08 931.164 1466.44 931.169ZM1466.44 929.842C1465.06 929.842 1464.23 928.46 1464.23 925.914C1464.24 923.379 1465.07 921.982 1466.44 921.982C1467.81 921.982 1468.64 923.379 1468.64 925.914C1468.64 928.46 1467.81 929.842 1466.44 929.842Z" fill="white"/>
<rect width="200" height="180" transform="translate(300 984)" fill="#FFA386"/>
<path d="M328.524 1135.14C330.602 1135.14 332.129 1133.9 332.124 1132.21C332.129 1130.92 331.348 1129.99 329.996 1129.78V1129.71C331.06 1129.43 331.751 1128.6 331.746 1127.45C331.751 1125.96 330.523 1124.68 328.564 1124.68C326.695 1124.68 325.193 1125.81 325.143 1127.46H326.63C326.665 1126.53 327.545 1125.96 328.544 1125.96C329.583 1125.96 330.264 1126.59 330.259 1127.53C330.264 1128.52 329.474 1129.16 328.345 1129.16H327.485V1130.42H328.345C329.757 1130.42 330.572 1131.13 330.572 1132.16C330.572 1133.15 329.712 1133.82 328.514 1133.82C327.411 1133.82 326.55 1133.25 326.491 1132.35H324.93C324.994 1134.01 326.466 1135.14 328.524 1135.14ZM337.408 1135.17C339.759 1135.17 341.136 1133.25 341.136 1129.91C341.136 1126.6 339.739 1124.68 337.408 1124.68C335.071 1124.68 333.679 1126.6 333.674 1129.91C333.674 1133.25 335.051 1135.16 337.408 1135.17ZM337.408 1133.84C336.03 1133.84 335.2 1132.46 335.2 1129.91C335.205 1127.38 336.035 1125.98 337.408 1125.98C338.775 1125.98 339.61 1127.38 339.61 1129.91C339.61 1132.46 338.78 1133.84 337.408 1133.84ZM346.305 1135.17C348.656 1135.17 350.033 1133.25 350.033 1129.91C350.033 1126.6 348.636 1124.68 346.305 1124.68C343.968 1124.68 342.576 1126.6 342.571 1129.91C342.571 1133.25 343.948 1135.16 346.305 1135.17ZM346.305 1133.84C344.928 1133.84 344.097 1132.46 344.097 1129.91C344.102 1127.38 344.933 1125.98 346.305 1125.98C347.672 1125.98 348.507 1127.38 348.507 1129.91C348.507 1132.46 347.677 1133.84 346.305 1133.84Z" fill="#33140B"/>
<rect width="200" height="180" transform="translate(524 984)" fill="#FFDDD1"/>
<path d="M548.979 1135H555.681V1133.68H551.097V1133.61L553.121 1131.49C554.985 1129.61 555.517 1128.71 555.517 1127.57C555.517 1125.93 554.185 1124.68 552.266 1124.68C550.362 1124.68 548.969 1125.91 548.969 1127.77H550.436C550.431 1126.68 551.137 1125.96 552.236 1125.96C553.27 1125.96 554.055 1126.6 554.055 1127.61C554.055 1128.51 553.518 1129.16 552.425 1130.32L548.979 1133.89V1135ZM560.97 1135.17C563.322 1135.17 564.699 1133.25 564.699 1129.91C564.699 1126.6 563.302 1124.68 560.97 1124.68C558.633 1124.68 557.241 1126.6 557.236 1129.91C557.236 1133.25 558.614 1135.16 560.97 1135.17ZM560.97 1133.84C559.593 1133.84 558.763 1132.46 558.763 1129.91C558.768 1127.38 559.598 1125.98 560.97 1125.98C562.337 1125.98 563.172 1127.38 563.172 1129.91C563.172 1132.46 562.342 1133.84 560.97 1133.84ZM569.867 1135.17C572.219 1135.17 573.596 1133.25 573.596 1129.91C573.596 1126.6 572.199 1124.68 569.867 1124.68C567.531 1124.68 566.139 1126.6 566.134 1129.91C566.134 1133.25 567.511 1135.16 569.867 1135.17ZM569.867 1133.84C568.49 1133.84 567.66 1132.46 567.66 1129.91C567.665 1127.38 568.495 1125.98 569.867 1125.98C571.234 1125.98 572.07 1127.38 572.07 1129.91C572.07 1132.46 571.239 1133.84 569.867 1133.84Z" fill="#33140B"/>
<rect width="200" height="180" transform="translate(748 984)" fill="#FFEEE8"/>
<path d="M776.842 1124.82H775.346L772.805 1126.48V1127.95L775.241 1126.36H775.301V1135H776.842V1124.82ZM783.001 1135.17C785.353 1135.17 786.73 1133.25 786.73 1129.91C786.73 1126.6 785.333 1124.68 783.001 1124.68C780.665 1124.68 779.273 1126.6 779.268 1129.91C779.268 1133.25 780.645 1135.16 783.001 1135.17ZM783.001 1133.84C781.624 1133.84 780.794 1132.46 780.794 1129.91C780.799 1127.38 781.629 1125.98 783.001 1125.98C784.369 1125.98 785.204 1127.38 785.204 1129.91C785.204 1132.46 784.373 1133.84 783.001 1133.84ZM791.898 1135.17C794.25 1135.17 795.627 1133.25 795.627 1129.91C795.627 1126.6 794.23 1124.68 791.898 1124.68C789.562 1124.68 788.17 1126.6 788.165 1129.91C788.165 1133.25 789.542 1135.16 791.898 1135.17ZM791.898 1133.84C790.521 1133.84 789.691 1132.46 789.691 1129.91C789.696 1127.38 790.526 1125.98 791.898 1125.98C793.266 1125.98 794.101 1127.38 794.101 1129.91C794.101 1132.46 793.271 1133.84 791.898 1133.84Z" fill="#33140B"/>
<path d="M309.339 1233.45H311.875C311.825 1231 309.73 1229.26 306.634 1229.26C303.58 1229.26 301.286 1230.97 301.293 1233.55C301.293 1235.63 302.777 1236.83 305.17 1237.45L306.825 1237.88C308.395 1238.28 309.432 1238.77 309.439 1239.89C309.432 1241.14 308.253 1241.97 306.534 1241.97C304.886 1241.97 303.608 1241.23 303.501 1239.7H300.909C301.016 1242.59 303.168 1244.22 306.555 1244.22C310.043 1244.22 312.067 1242.48 312.074 1239.92C312.067 1237.39 309.986 1236.24 307.798 1235.73L306.435 1235.38C305.241 1235.1 303.949 1234.6 303.963 1233.38C303.97 1232.29 304.95 1231.49 306.598 1231.49C308.168 1231.49 309.205 1232.22 309.339 1233.45ZM319.139 1244.21C321.681 1244.21 323.429 1242.97 323.883 1241.07L321.483 1240.8C321.135 1241.73 320.282 1242.21 319.174 1242.21C317.512 1242.21 316.412 1241.12 316.39 1239.25H323.99V1238.46C323.99 1234.63 321.689 1232.95 319.004 1232.95C315.879 1232.95 313.841 1235.24 313.841 1238.61C313.841 1242.03 315.85 1244.21 319.139 1244.21ZM316.397 1237.52C316.475 1236.12 317.505 1234.95 319.039 1234.95C320.517 1234.95 321.511 1236.03 321.525 1237.52H316.397ZM330.923 1244.21C333.665 1244.21 335.412 1242.59 335.597 1240.27H333.139C332.919 1241.44 332.074 1242.12 330.945 1242.12C329.339 1242.12 328.303 1240.78 328.303 1238.55C328.303 1236.34 329.361 1235.02 330.945 1235.02C332.18 1235.02 332.94 1235.82 333.139 1236.87H335.597C335.419 1234.5 333.572 1232.95 330.909 1232.95C327.713 1232.95 325.696 1235.26 325.696 1238.59C325.696 1241.89 327.663 1244.21 330.923 1244.21ZM342.466 1244.21C345.662 1244.21 347.694 1241.96 347.694 1238.59C347.694 1235.21 345.662 1232.95 342.466 1232.95C339.27 1232.95 337.239 1235.21 337.239 1238.59C337.239 1241.96 339.27 1244.21 342.466 1244.21ZM342.48 1242.15C340.712 1242.15 339.846 1240.58 339.846 1238.58C339.846 1236.59 340.712 1234.99 342.48 1234.99C344.221 1234.99 345.087 1236.59 345.087 1238.58C345.087 1240.58 344.221 1242.15 342.48 1242.15ZM352.447 1237.61C352.447 1236.03 353.398 1235.12 354.755 1235.12C356.083 1235.12 356.879 1236 356.879 1237.45V1244H359.45V1237.05C359.457 1234.44 357.965 1232.95 355.714 1232.95C354.08 1232.95 352.958 1233.73 352.461 1234.94H352.333V1233.09H349.876V1244H352.447V1237.61ZM366.112 1244.19C367.987 1244.19 368.832 1243.08 369.237 1242.28H369.393V1244H371.921V1229.45H369.343V1234.89H369.237C368.846 1234.11 368.043 1232.95 366.119 1232.95C363.597 1232.95 361.616 1234.92 361.616 1238.56C361.616 1242.15 363.54 1244.19 366.112 1244.19ZM366.829 1242.08C365.131 1242.08 364.237 1240.59 364.237 1238.55C364.237 1236.51 365.117 1235.06 366.829 1235.06C368.484 1235.06 369.393 1236.43 369.393 1238.55C369.393 1240.66 368.469 1242.08 366.829 1242.08ZM377.8 1244.22C379.512 1244.22 380.534 1243.42 381.003 1242.5H381.088V1244H383.56V1236.7C383.56 1233.82 381.209 1232.95 379.128 1232.95C376.834 1232.95 375.073 1233.97 374.505 1235.96L376.905 1236.3C377.161 1235.56 377.885 1234.92 379.142 1234.92C380.336 1234.92 380.989 1235.53 380.989 1236.6V1236.64C380.989 1237.38 380.215 1237.42 378.29 1237.62C376.174 1237.85 374.15 1238.48 374.15 1240.94C374.15 1243.08 375.719 1244.22 377.8 1244.22ZM378.468 1242.33C377.395 1242.33 376.628 1241.84 376.628 1240.9C376.628 1239.91 377.488 1239.5 378.638 1239.33C379.313 1239.24 380.662 1239.07 380.996 1238.8V1240.09C380.996 1241.3 380.016 1242.33 378.468 1242.33ZM386.145 1244H388.716V1237.59C388.716 1236.2 389.76 1235.22 391.174 1235.22C391.607 1235.22 392.147 1235.3 392.367 1235.37V1233.01C392.132 1232.96 391.728 1232.93 391.444 1232.93C390.194 1232.93 389.15 1233.64 388.752 1234.91H388.638V1233.09H386.145V1244ZM396.005 1248.09C398.008 1248.09 399.165 1247.06 399.783 1245.32L404.165 1233.11L401.417 1233.09L398.896 1241.33H398.782L396.268 1233.09H393.54L397.496 1244.23L397.276 1244.82C396.8 1246.06 396.048 1246.14 394.925 1245.82L394.329 1247.82C394.677 1247.96 395.302 1248.09 396.005 1248.09Z" fill="#111033"/>
<rect width="200" height="180" transform="translate(300 1274)" fill="#111033"/>
<path d="M328.365 1414.68C326.227 1414.66 324.83 1416.2 324.83 1418.12C324.835 1420.07 326.242 1421.47 328.007 1421.47C329.086 1421.47 330.011 1420.94 330.533 1420.09H330.612C330.607 1422.43 329.727 1423.8 328.236 1423.8C327.261 1423.8 326.635 1423.2 326.436 1422.33H324.92C325.143 1423.98 326.416 1425.14 328.236 1425.14C330.602 1425.14 332.084 1423.11 332.084 1419.54C332.079 1415.82 330.18 1414.69 328.365 1414.68ZM328.37 1415.97C329.548 1415.97 330.418 1416.97 330.418 1418.09C330.423 1419.22 329.504 1420.22 328.34 1420.22C327.172 1420.22 326.327 1419.28 326.322 1418.1C326.322 1416.92 327.202 1415.97 328.37 1415.97ZM337.285 1425.17C339.636 1425.17 341.013 1423.25 341.013 1419.91C341.013 1416.6 339.616 1414.68 337.285 1414.68C334.948 1414.68 333.556 1416.6 333.551 1419.91C333.551 1423.25 334.928 1425.16 337.285 1425.17ZM337.285 1423.84C335.907 1423.84 335.077 1422.46 335.077 1419.91C335.082 1417.38 335.912 1415.98 337.285 1415.98C338.652 1415.98 339.487 1417.38 339.487 1419.91C339.487 1422.46 338.657 1423.84 337.285 1423.84ZM346.182 1425.17C348.533 1425.17 349.91 1423.25 349.91 1419.91C349.91 1416.6 348.513 1414.68 346.182 1414.68C343.845 1414.68 342.453 1416.6 342.448 1419.91C342.448 1423.25 343.825 1425.16 346.182 1425.17ZM346.182 1423.84C344.805 1423.84 343.974 1422.46 343.974 1419.91C343.979 1417.38 344.809 1415.98 346.182 1415.98C347.549 1415.98 348.384 1417.38 348.384 1419.91C348.384 1422.46 347.554 1423.84 346.182 1423.84Z" fill="white"/>
<rect width="200" height="180" transform="translate(524 1274)" fill="#222065"/>
<path d="M552.42 1425.14C554.538 1425.14 556.034 1423.94 556.044 1422.29C556.034 1421 555.134 1419.92 553.996 1419.72V1419.66C554.985 1419.42 555.656 1418.49 555.666 1417.39C555.656 1415.84 554.284 1414.68 552.42 1414.68C550.536 1414.68 549.163 1415.84 549.173 1417.39C549.163 1418.49 549.835 1419.42 550.844 1419.66V1419.72C549.685 1419.92 548.786 1421 548.795 1422.29C548.786 1423.94 550.282 1425.14 552.42 1425.14ZM552.42 1423.88C551.147 1423.88 550.342 1423.21 550.352 1422.19C550.342 1421.13 551.217 1420.37 552.42 1420.37C553.603 1420.37 554.478 1421.13 554.488 1422.19C554.478 1423.21 553.678 1423.88 552.42 1423.88ZM552.42 1419.14C551.391 1419.14 550.66 1418.49 550.67 1417.52C550.66 1416.57 551.366 1415.94 552.42 1415.94C553.454 1415.94 554.16 1416.57 554.17 1417.52C554.16 1418.49 553.434 1419.14 552.42 1419.14ZM561.23 1425.17C563.581 1425.17 564.959 1423.25 564.959 1419.91C564.959 1416.6 563.562 1414.68 561.23 1414.68C558.893 1414.68 557.501 1416.6 557.496 1419.91C557.496 1423.25 558.873 1425.16 561.23 1425.17ZM561.23 1423.84C559.853 1423.84 559.022 1422.46 559.022 1419.91C559.027 1417.38 559.858 1415.98 561.23 1415.98C562.597 1415.98 563.432 1417.38 563.432 1419.91C563.432 1422.46 562.602 1423.84 561.23 1423.84ZM570.127 1425.17C572.479 1425.17 573.856 1423.25 573.856 1419.91C573.856 1416.6 572.459 1414.68 570.127 1414.68C567.79 1414.68 566.398 1416.6 566.393 1419.91C566.393 1423.25 567.77 1425.16 570.127 1425.17ZM570.127 1423.84C568.75 1423.84 567.92 1422.46 567.92 1419.91C567.925 1417.38 568.755 1415.98 570.127 1415.98C571.494 1415.98 572.329 1417.38 572.329 1419.91C572.329 1422.46 571.499 1423.84 570.127 1423.84Z" fill="white"/>
<rect width="200" height="180" transform="translate(748 1274)" fill="#342F98"/>
<path d="M773.322 1425H774.928L779.358 1416.18V1414.82H772.626V1416.14H777.767V1416.21L773.322 1425ZM784.273 1425.17C786.624 1425.17 788.002 1423.25 788.002 1419.91C788.002 1416.6 786.604 1414.68 784.273 1414.68C781.936 1414.68 780.544 1416.6 780.539 1419.91C780.539 1423.25 781.916 1425.16 784.273 1425.17ZM784.273 1423.84C782.896 1423.84 782.065 1422.46 782.065 1419.91C782.07 1417.38 782.901 1415.98 784.273 1415.98C785.64 1415.98 786.475 1417.38 786.475 1419.91C786.475 1422.46 785.645 1423.84 784.273 1423.84ZM793.17 1425.17C795.521 1425.17 796.899 1423.25 796.899 1419.91C796.899 1416.6 795.502 1414.68 793.17 1414.68C790.833 1414.68 789.441 1416.6 789.436 1419.91C789.436 1423.25 790.813 1425.16 793.17 1425.17ZM793.17 1423.84C791.793 1423.84 790.963 1422.46 790.963 1419.91C790.968 1417.38 791.798 1415.98 793.17 1415.98C794.537 1415.98 795.372 1417.38 795.372 1419.91C795.372 1422.46 794.542 1423.84 793.17 1423.84Z" fill="white"/>
<rect width="200" height="180" transform="translate(972 1274)" fill="#453FCA"/>
<path d="M1000.53 1425.14C1002.66 1425.16 1004.07 1423.63 1004.07 1421.67C1004.07 1419.73 1002.66 1418.33 1000.89 1418.33C999.818 1418.33 998.888 1418.85 998.366 1419.71H998.292C998.297 1417.39 999.172 1416.02 1000.66 1416.02C1001.64 1416.02 1002.26 1416.62 1002.47 1417.46H1003.98C1003.75 1415.85 1002.48 1414.68 1000.66 1414.68C998.297 1414.68 996.82 1416.71 996.82 1420.25C996.815 1424 998.724 1425.12 1000.53 1425.14ZM1000.53 1423.85C999.346 1423.85 998.481 1422.85 998.481 1421.71C998.486 1420.57 999.391 1419.58 1000.56 1419.58C1001.73 1419.58 1002.58 1420.52 1002.58 1421.69C1002.58 1422.9 1001.69 1423.85 1000.53 1423.85ZM1009.28 1425.17C1011.64 1425.17 1013.01 1423.25 1013.01 1419.91C1013.01 1416.6 1011.62 1414.68 1009.28 1414.68C1006.95 1414.68 1005.56 1416.6 1005.55 1419.91C1005.55 1423.25 1006.93 1425.16 1009.28 1425.17ZM1009.28 1423.84C1007.91 1423.84 1007.08 1422.46 1007.08 1419.91C1007.08 1417.38 1007.91 1415.98 1009.28 1415.98C1010.65 1415.98 1011.49 1417.38 1011.49 1419.91C1011.49 1422.46 1010.66 1423.84 1009.28 1423.84ZM1018.18 1425.17C1020.53 1425.17 1021.91 1423.25 1021.91 1419.91C1021.91 1416.6 1020.51 1414.68 1018.18 1414.68C1015.84 1414.68 1014.45 1416.6 1014.45 1419.91C1014.45 1423.25 1015.83 1425.16 1018.18 1425.17ZM1018.18 1423.84C1016.8 1423.84 1015.97 1422.46 1015.97 1419.91C1015.98 1417.38 1016.81 1415.98 1018.18 1415.98C1019.55 1415.98 1020.38 1417.38 1020.38 1419.91C1020.38 1422.46 1019.55 1423.84 1018.18 1423.84Z" fill="white"/>
<rect width="200" height="180" transform="translate(1196 1274)" fill="#564FFD"/>
<path d="M1224.34 1425.14C1226.39 1425.14 1227.85 1423.69 1227.85 1421.71C1227.85 1419.74 1226.48 1418.31 1224.62 1418.31C1223.87 1418.31 1223.17 1418.6 1222.77 1418.98H1222.71L1223.03 1416.14H1227.35V1414.82H1221.75L1221.18 1419.95L1222.59 1420.16C1222.97 1419.81 1223.66 1419.58 1224.28 1419.58C1225.48 1419.59 1226.36 1420.5 1226.36 1421.74C1226.36 1422.96 1225.51 1423.85 1224.34 1423.85C1223.36 1423.85 1222.58 1423.22 1222.5 1422.35H1221C1221.06 1423.97 1222.47 1425.14 1224.34 1425.14ZM1233.07 1425.17C1235.42 1425.17 1236.79 1423.25 1236.79 1419.91C1236.79 1416.6 1235.4 1414.68 1233.07 1414.68C1230.73 1414.68 1229.34 1416.6 1229.33 1419.91C1229.33 1423.25 1230.71 1425.16 1233.07 1425.17ZM1233.07 1423.84C1231.69 1423.84 1230.86 1422.46 1230.86 1419.91C1230.86 1417.38 1231.69 1415.98 1233.07 1415.98C1234.43 1415.98 1235.27 1417.38 1235.27 1419.91C1235.27 1422.46 1234.44 1423.84 1233.07 1423.84ZM1241.96 1425.17C1244.31 1425.17 1245.69 1423.25 1245.69 1419.91C1245.69 1416.6 1244.29 1414.68 1241.96 1414.68C1239.63 1414.68 1238.23 1416.6 1238.23 1419.91C1238.23 1423.25 1239.61 1425.16 1241.96 1425.17ZM1241.96 1423.84C1240.59 1423.84 1239.76 1422.46 1239.76 1419.91C1239.76 1417.38 1240.59 1415.98 1241.96 1415.98C1243.33 1415.98 1244.17 1417.38 1244.17 1419.91C1244.17 1422.46 1243.34 1423.84 1241.96 1423.84Z" fill="white"/>
<rect width="200" height="180" transform="translate(1420 1274)" fill="#7872FD"/>
<path d="M1444.77 1423.01H1449.59V1425H1451.06V1423.01H1452.41V1421.71H1451.06V1414.82H1449.17L1444.77 1421.77V1423.01ZM1449.6 1421.71H1446.38V1421.63L1449.52 1416.65H1449.6V1421.71ZM1457.54 1425.17C1459.9 1425.17 1461.27 1423.25 1461.27 1419.91C1461.27 1416.6 1459.88 1414.68 1457.54 1414.68C1455.21 1414.68 1453.82 1416.6 1453.81 1419.91C1453.81 1423.25 1455.19 1425.16 1457.54 1425.17ZM1457.54 1423.84C1456.17 1423.84 1455.34 1422.46 1455.34 1419.91C1455.34 1417.38 1456.17 1415.98 1457.54 1415.98C1458.91 1415.98 1459.75 1417.38 1459.75 1419.91C1459.75 1422.46 1458.92 1423.84 1457.54 1423.84ZM1466.44 1425.17C1468.79 1425.17 1470.17 1423.25 1470.17 1419.91C1470.17 1416.6 1468.77 1414.68 1466.44 1414.68C1464.1 1414.68 1462.71 1416.6 1462.71 1419.91C1462.71 1423.25 1464.08 1425.16 1466.44 1425.17ZM1466.44 1423.84C1465.06 1423.84 1464.23 1422.46 1464.23 1419.91C1464.24 1417.38 1465.07 1415.98 1466.44 1415.98C1467.81 1415.98 1468.64 1417.38 1468.64 1419.91C1468.64 1422.46 1467.81 1423.84 1466.44 1423.84Z" fill="white"/>
<rect width="200" height="180" transform="translate(300 1478)" fill="#9A95FE"/>
<path d="M328.524 1629.14C330.602 1629.14 332.129 1627.9 332.124 1626.21C332.129 1624.92 331.348 1623.99 329.996 1623.78V1623.71C331.06 1623.43 331.751 1622.6 331.746 1621.45C331.751 1619.96 330.523 1618.68 328.564 1618.68C326.695 1618.68 325.193 1619.81 325.143 1621.46H326.63C326.665 1620.53 327.545 1619.96 328.544 1619.96C329.583 1619.96 330.264 1620.59 330.259 1621.53C330.264 1622.52 329.474 1623.16 328.345 1623.16H327.485V1624.42H328.345C329.757 1624.42 330.572 1625.13 330.572 1626.16C330.572 1627.15 329.712 1627.82 328.514 1627.82C327.411 1627.82 326.55 1627.25 326.491 1626.35H324.93C324.994 1628.01 326.466 1629.14 328.524 1629.14ZM337.408 1629.17C339.759 1629.17 341.136 1627.25 341.136 1623.91C341.136 1620.6 339.739 1618.68 337.408 1618.68C335.071 1618.68 333.679 1620.6 333.674 1623.91C333.674 1627.25 335.051 1629.16 337.408 1629.17ZM337.408 1627.84C336.03 1627.84 335.2 1626.46 335.2 1623.91C335.205 1621.38 336.035 1619.98 337.408 1619.98C338.775 1619.98 339.61 1621.38 339.61 1623.91C339.61 1626.46 338.78 1627.84 337.408 1627.84ZM346.305 1629.17C348.656 1629.17 350.033 1627.25 350.033 1623.91C350.033 1620.6 348.636 1618.68 346.305 1618.68C343.968 1618.68 342.576 1620.6 342.571 1623.91C342.571 1627.25 343.948 1629.16 346.305 1629.17ZM346.305 1627.84C344.928 1627.84 344.097 1626.46 344.097 1623.91C344.102 1621.38 344.933 1619.98 346.305 1619.98C347.672 1619.98 348.507 1621.38 348.507 1623.91C348.507 1626.46 347.677 1627.84 346.305 1627.84Z" fill="#111033"/>
<rect width="200" height="180" transform="translate(524 1478)" fill="#CDCBFE"/>
<path d="M548.979 1629H555.681V1627.68H551.097V1627.61L553.121 1625.49C554.985 1623.61 555.517 1622.71 555.517 1621.57C555.517 1619.93 554.185 1618.68 552.266 1618.68C550.362 1618.68 548.969 1619.91 548.969 1621.77H550.436C550.431 1620.68 551.137 1619.96 552.236 1619.96C553.27 1619.96 554.055 1620.6 554.055 1621.61C554.055 1622.51 553.518 1623.16 552.425 1624.32L548.979 1627.89V1629ZM560.97 1629.17C563.322 1629.17 564.699 1627.25 564.699 1623.91C564.699 1620.6 563.302 1618.68 560.97 1618.68C558.633 1618.68 557.241 1620.6 557.236 1623.91C557.236 1627.25 558.614 1629.16 560.97 1629.17ZM560.97 1627.84C559.593 1627.84 558.763 1626.46 558.763 1623.91C558.768 1621.38 559.598 1619.98 560.97 1619.98C562.337 1619.98 563.172 1621.38 563.172 1623.91C563.172 1626.46 562.342 1627.84 560.97 1627.84ZM569.867 1629.17C572.219 1629.17 573.596 1627.25 573.596 1623.91C573.596 1620.6 572.199 1618.68 569.867 1618.68C567.531 1618.68 566.139 1620.6 566.134 1623.91C566.134 1627.25 567.511 1629.16 569.867 1629.17ZM569.867 1627.84C568.49 1627.84 567.66 1626.46 567.66 1623.91C567.665 1621.38 568.495 1619.98 569.867 1619.98C571.234 1619.98 572.07 1621.38 572.07 1623.91C572.07 1626.46 571.239 1627.84 569.867 1627.84Z" fill="#111033"/>
<rect width="200" height="180" transform="translate(748 1478)" fill="#EBEBFF"/>
<path d="M776.842 1618.82H775.346L772.805 1620.48V1621.95L775.241 1620.36H775.301V1629H776.842V1618.82ZM783.001 1629.17C785.353 1629.17 786.73 1627.25 786.73 1623.91C786.73 1620.6 785.333 1618.68 783.001 1618.68C780.665 1618.68 779.273 1620.6 779.268 1623.91C779.268 1627.25 780.645 1629.16 783.001 1629.17ZM783.001 1627.84C781.624 1627.84 780.794 1626.46 780.794 1623.91C780.799 1621.38 781.629 1619.98 783.001 1619.98C784.369 1619.98 785.204 1621.38 785.204 1623.91C785.204 1626.46 784.373 1627.84 783.001 1627.84ZM791.898 1629.17C794.25 1629.17 795.627 1627.25 795.627 1623.91C795.627 1620.6 794.23 1618.68 791.898 1618.68C789.562 1618.68 788.17 1620.6 788.165 1623.91C788.165 1627.25 789.542 1629.16 791.898 1629.17ZM791.898 1627.84C790.521 1627.84 789.691 1626.46 789.691 1623.91C789.696 1621.38 790.526 1619.98 791.898 1619.98C793.266 1619.98 794.101 1621.38 794.101 1623.91C794.101 1626.46 793.271 1627.84 791.898 1627.84Z" fill="#111033"/>
<path d="M309.339 1727.45H311.875C311.825 1725 309.73 1723.26 306.634 1723.26C303.58 1723.26 301.286 1724.97 301.293 1727.55C301.293 1729.63 302.777 1730.83 305.17 1731.45L306.825 1731.88C308.395 1732.28 309.432 1732.77 309.439 1733.89C309.432 1735.14 308.253 1735.97 306.534 1735.97C304.886 1735.97 303.608 1735.23 303.501 1733.7H300.909C301.016 1736.59 303.168 1738.22 306.555 1738.22C310.043 1738.22 312.067 1736.48 312.074 1733.92C312.067 1731.39 309.986 1730.24 307.798 1729.73L306.435 1729.38C305.241 1729.1 303.949 1728.6 303.963 1727.38C303.97 1726.29 304.95 1725.49 306.598 1725.49C308.168 1725.49 309.205 1726.22 309.339 1727.45ZM321.262 1733.41C321.262 1735.07 320.076 1735.9 318.94 1735.9C317.704 1735.9 316.88 1735.02 316.88 1733.64V1727.09H314.309V1734.04C314.309 1736.66 315.801 1738.14 317.946 1738.14C319.579 1738.14 320.73 1737.28 321.227 1736.06H321.341V1738H323.833V1727.09H321.262V1733.41ZM331.236 1738.21C333.977 1738.21 335.724 1736.59 335.909 1734.27H333.452C333.232 1735.44 332.386 1736.12 331.257 1736.12C329.652 1736.12 328.615 1734.78 328.615 1732.55C328.615 1730.34 329.673 1729.02 331.257 1729.02C332.493 1729.02 333.253 1729.82 333.452 1730.87H335.909C335.732 1728.5 333.885 1726.95 331.222 1726.95C328.026 1726.95 326.009 1729.26 326.009 1732.59C326.009 1735.89 327.976 1738.21 331.236 1738.21ZM342.779 1738.21C345.52 1738.21 347.267 1736.59 347.452 1734.27H344.995C344.775 1735.44 343.929 1736.12 342.8 1736.12C341.195 1736.12 340.158 1734.78 340.158 1732.55C340.158 1730.34 341.216 1729.02 342.8 1729.02C344.036 1729.02 344.796 1729.82 344.995 1730.87H347.452C347.275 1728.5 345.428 1726.95 342.765 1726.95C339.569 1726.95 337.551 1729.26 337.551 1732.59C337.551 1735.89 339.519 1738.21 342.779 1738.21ZM354.393 1738.21C356.935 1738.21 358.683 1736.97 359.137 1735.07L356.737 1734.8C356.388 1735.73 355.536 1736.21 354.428 1736.21C352.766 1736.21 351.665 1735.12 351.644 1733.25H359.244V1732.46C359.244 1728.63 356.942 1726.95 354.258 1726.95C351.133 1726.95 349.094 1729.24 349.094 1732.61C349.094 1736.03 351.104 1738.21 354.393 1738.21ZM351.651 1731.52C351.729 1730.12 352.759 1728.95 354.293 1728.95C355.771 1728.95 356.765 1730.03 356.779 1731.52H351.651ZM370.041 1729.97C369.686 1728.13 368.208 1726.95 365.652 1726.95C363.024 1726.95 361.234 1728.24 361.241 1730.26C361.234 1731.85 362.214 1732.9 364.309 1733.33L366.17 1733.72C367.172 1733.94 367.64 1734.35 367.64 1734.97C367.64 1735.71 366.831 1736.27 365.609 1736.27C364.43 1736.27 363.663 1735.76 363.443 1734.78L360.936 1735.02C361.255 1737.03 362.939 1738.21 365.616 1738.21C368.343 1738.21 370.268 1736.8 370.275 1734.73C370.268 1733.18 369.267 1732.23 367.207 1731.78L365.346 1731.38C364.238 1731.13 363.798 1730.75 363.805 1730.12C363.798 1729.38 364.615 1728.87 365.687 1728.87C366.873 1728.87 367.498 1729.51 367.697 1730.23L370.041 1729.97ZM381.017 1729.97C380.662 1728.13 379.185 1726.95 376.628 1726.95C374 1726.95 372.211 1728.24 372.218 1730.26C372.211 1731.85 373.191 1732.9 375.286 1733.33L377.147 1733.72C378.148 1733.94 378.617 1734.35 378.617 1734.97C378.617 1735.71 377.807 1736.27 376.586 1736.27C375.407 1736.27 374.64 1735.76 374.419 1734.78L371.912 1735.02C372.232 1737.03 373.915 1738.21 376.593 1738.21C379.32 1738.21 381.245 1736.8 381.252 1734.73C381.245 1733.18 380.243 1732.23 378.184 1731.78L376.323 1731.38C375.215 1731.13 374.775 1730.75 374.782 1730.12C374.775 1729.38 375.591 1728.87 376.664 1728.87C377.85 1728.87 378.475 1729.51 378.674 1730.23L381.017 1729.97Z" fill="#111033"/>
<rect width="200" height="180" transform="translate(300 1768)" fill="#07260A"/>
<path d="M328.365 1908.68C326.227 1908.66 324.83 1910.2 324.83 1912.12C324.835 1914.07 326.242 1915.47 328.007 1915.47C329.086 1915.47 330.011 1914.94 330.533 1914.09H330.612C330.607 1916.43 329.727 1917.8 328.236 1917.8C327.261 1917.8 326.635 1917.2 326.436 1916.33H324.92C325.143 1917.98 326.416 1919.14 328.236 1919.14C330.602 1919.14 332.084 1917.11 332.084 1913.54C332.079 1909.82 330.18 1908.69 328.365 1908.68ZM328.37 1909.97C329.548 1909.97 330.418 1910.97 330.418 1912.09C330.423 1913.22 329.504 1914.22 328.34 1914.22C327.172 1914.22 326.327 1913.28 326.322 1912.1C326.322 1910.92 327.202 1909.97 328.37 1909.97ZM337.285 1919.17C339.636 1919.17 341.013 1917.25 341.013 1913.91C341.013 1910.6 339.616 1908.68 337.285 1908.68C334.948 1908.68 333.556 1910.6 333.551 1913.91C333.551 1917.25 334.928 1919.16 337.285 1919.17ZM337.285 1917.84C335.907 1917.84 335.077 1916.46 335.077 1913.91C335.082 1911.38 335.912 1909.98 337.285 1909.98C338.652 1909.98 339.487 1911.38 339.487 1913.91C339.487 1916.46 338.657 1917.84 337.285 1917.84ZM346.182 1919.17C348.533 1919.17 349.91 1917.25 349.91 1913.91C349.91 1910.6 348.513 1908.68 346.182 1908.68C343.845 1908.68 342.453 1910.6 342.448 1913.91C342.448 1917.25 343.825 1919.16 346.182 1919.17ZM346.182 1917.84C344.805 1917.84 343.974 1916.46 343.974 1913.91C343.979 1911.38 344.809 1909.98 346.182 1909.98C347.549 1909.98 348.384 1911.38 348.384 1913.91C348.384 1916.46 347.554 1917.84 346.182 1917.84Z" fill="white"/>
<rect width="200" height="180" transform="translate(524 1768)" fill="#0E4C14"/>
<path d="M552.42 1919.14C554.538 1919.14 556.034 1917.94 556.044 1916.29C556.034 1915 555.134 1913.92 553.996 1913.72V1913.66C554.985 1913.42 555.656 1912.49 555.666 1911.39C555.656 1909.84 554.284 1908.68 552.42 1908.68C550.536 1908.68 549.163 1909.84 549.173 1911.39C549.163 1912.49 549.835 1913.42 550.844 1913.66V1913.72C549.685 1913.92 548.786 1915 548.795 1916.29C548.786 1917.94 550.282 1919.14 552.42 1919.14ZM552.42 1917.88C551.147 1917.88 550.342 1917.21 550.352 1916.19C550.342 1915.13 551.217 1914.37 552.42 1914.37C553.603 1914.37 554.478 1915.13 554.488 1916.19C554.478 1917.21 553.678 1917.88 552.42 1917.88ZM552.42 1913.14C551.391 1913.14 550.66 1912.49 550.67 1911.52C550.66 1910.57 551.366 1909.94 552.42 1909.94C553.454 1909.94 554.16 1910.57 554.17 1911.52C554.16 1912.49 553.434 1913.14 552.42 1913.14ZM561.23 1919.17C563.581 1919.17 564.959 1917.25 564.959 1913.91C564.959 1910.6 563.562 1908.68 561.23 1908.68C558.893 1908.68 557.501 1910.6 557.496 1913.91C557.496 1917.25 558.873 1919.16 561.23 1919.17ZM561.23 1917.84C559.853 1917.84 559.022 1916.46 559.022 1913.91C559.027 1911.38 559.858 1909.98 561.23 1909.98C562.597 1909.98 563.432 1911.38 563.432 1913.91C563.432 1916.46 562.602 1917.84 561.23 1917.84ZM570.127 1919.17C572.479 1919.17 573.856 1917.25 573.856 1913.91C573.856 1910.6 572.459 1908.68 570.127 1908.68C567.79 1908.68 566.398 1910.6 566.393 1913.91C566.393 1917.25 567.77 1919.16 570.127 1919.17ZM570.127 1917.84C568.75 1917.84 567.92 1916.46 567.92 1913.91C567.925 1911.38 568.755 1909.98 570.127 1909.98C571.494 1909.98 572.329 1911.38 572.329 1913.91C572.329 1916.46 571.499 1917.84 570.127 1917.84Z" fill="white"/>
<rect width="200" height="180" transform="translate(748 1768)" fill="#15711F"/>
<path d="M773.322 1919H774.928L779.358 1910.18V1908.82H772.626V1910.14H777.767V1910.21L773.322 1919ZM784.273 1919.17C786.624 1919.17 788.002 1917.25 788.002 1913.91C788.002 1910.6 786.604 1908.68 784.273 1908.68C781.936 1908.68 780.544 1910.6 780.539 1913.91C780.539 1917.25 781.916 1919.16 784.273 1919.17ZM784.273 1917.84C782.896 1917.84 782.065 1916.46 782.065 1913.91C782.07 1911.38 782.901 1909.98 784.273 1909.98C785.64 1909.98 786.475 1911.38 786.475 1913.91C786.475 1916.46 785.645 1917.84 784.273 1917.84ZM793.17 1919.17C795.521 1919.17 796.899 1917.25 796.899 1913.91C796.899 1910.6 795.502 1908.68 793.17 1908.68C790.833 1908.68 789.441 1910.6 789.436 1913.91C789.436 1917.25 790.813 1919.16 793.17 1919.17ZM793.17 1917.84C791.793 1917.84 790.963 1916.46 790.963 1913.91C790.968 1911.38 791.798 1909.98 793.17 1909.98C794.537 1909.98 795.372 1911.38 795.372 1913.91C795.372 1916.46 794.542 1917.84 793.17 1917.84Z" fill="white"/>
<rect width="200" height="180" transform="translate(972 1768)" fill="#1C9729"/>
<path d="M1000.53 1919.14C1002.66 1919.16 1004.07 1917.63 1004.07 1915.67C1004.07 1913.73 1002.66 1912.33 1000.89 1912.33C999.818 1912.33 998.888 1912.85 998.366 1913.71H998.292C998.297 1911.39 999.172 1910.02 1000.66 1910.02C1001.64 1910.02 1002.26 1910.62 1002.47 1911.46H1003.98C1003.75 1909.85 1002.48 1908.68 1000.66 1908.68C998.297 1908.68 996.82 1910.71 996.82 1914.25C996.815 1918 998.724 1919.12 1000.53 1919.14ZM1000.53 1917.85C999.346 1917.85 998.481 1916.85 998.481 1915.71C998.486 1914.57 999.391 1913.58 1000.56 1913.58C1001.73 1913.58 1002.58 1914.52 1002.58 1915.69C1002.58 1916.9 1001.69 1917.85 1000.53 1917.85ZM1009.28 1919.17C1011.64 1919.17 1013.01 1917.25 1013.01 1913.91C1013.01 1910.6 1011.62 1908.68 1009.28 1908.68C1006.95 1908.68 1005.56 1910.6 1005.55 1913.91C1005.55 1917.25 1006.93 1919.16 1009.28 1919.17ZM1009.28 1917.84C1007.91 1917.84 1007.08 1916.46 1007.08 1913.91C1007.08 1911.38 1007.91 1909.98 1009.28 1909.98C1010.65 1909.98 1011.49 1911.38 1011.49 1913.91C1011.49 1916.46 1010.66 1917.84 1009.28 1917.84ZM1018.18 1919.17C1020.53 1919.17 1021.91 1917.25 1021.91 1913.91C1021.91 1910.6 1020.51 1908.68 1018.18 1908.68C1015.84 1908.68 1014.45 1910.6 1014.45 1913.91C1014.45 1917.25 1015.83 1919.16 1018.18 1919.17ZM1018.18 1917.84C1016.8 1917.84 1015.97 1916.46 1015.97 1913.91C1015.98 1911.38 1016.81 1909.98 1018.18 1909.98C1019.55 1909.98 1020.38 1911.38 1020.38 1913.91C1020.38 1916.46 1019.55 1917.84 1018.18 1917.84Z" fill="white"/>
<rect width="200" height="180" transform="translate(1196 1768)" fill="#23BD33"/>
<path d="M1224.34 1919.14C1226.39 1919.14 1227.85 1917.69 1227.85 1915.71C1227.85 1913.74 1226.48 1912.31 1224.62 1912.31C1223.87 1912.31 1223.17 1912.6 1222.77 1912.98H1222.71L1223.03 1910.14H1227.35V1908.82H1221.75L1221.18 1913.95L1222.59 1914.16C1222.97 1913.81 1223.66 1913.58 1224.28 1913.58C1225.48 1913.59 1226.36 1914.5 1226.36 1915.74C1226.36 1916.96 1225.51 1917.85 1224.34 1917.85C1223.36 1917.85 1222.58 1917.22 1222.5 1916.35H1221C1221.06 1917.97 1222.47 1919.14 1224.34 1919.14ZM1233.07 1919.17C1235.42 1919.17 1236.79 1917.25 1236.79 1913.91C1236.79 1910.6 1235.4 1908.68 1233.07 1908.68C1230.73 1908.68 1229.34 1910.6 1229.33 1913.91C1229.33 1917.25 1230.71 1919.16 1233.07 1919.17ZM1233.07 1917.84C1231.69 1917.84 1230.86 1916.46 1230.86 1913.91C1230.86 1911.38 1231.69 1909.98 1233.07 1909.98C1234.43 1909.98 1235.27 1911.38 1235.27 1913.91C1235.27 1916.46 1234.44 1917.84 1233.07 1917.84ZM1241.96 1919.17C1244.31 1919.17 1245.69 1917.25 1245.69 1913.91C1245.69 1910.6 1244.29 1908.68 1241.96 1908.68C1239.63 1908.68 1238.23 1910.6 1238.23 1913.91C1238.23 1917.25 1239.61 1919.16 1241.96 1919.17ZM1241.96 1917.84C1240.59 1917.84 1239.76 1916.46 1239.76 1913.91C1239.76 1911.38 1240.59 1909.98 1241.96 1909.98C1243.33 1909.98 1244.17 1911.38 1244.17 1913.91C1244.17 1916.46 1243.34 1917.84 1241.96 1917.84Z" fill="white"/>
<rect width="200" height="180" transform="translate(1420 1768)" fill="#4FCA5C"/>
<path d="M1444.77 1917.01H1449.59V1919H1451.06V1917.01H1452.41V1915.71H1451.06V1908.82H1449.17L1444.77 1915.77V1917.01ZM1449.6 1915.71H1446.38V1915.63L1449.52 1910.65H1449.6V1915.71ZM1457.54 1919.17C1459.9 1919.17 1461.27 1917.25 1461.27 1913.91C1461.27 1910.6 1459.88 1908.68 1457.54 1908.68C1455.21 1908.68 1453.82 1910.6 1453.81 1913.91C1453.81 1917.25 1455.19 1919.16 1457.54 1919.17ZM1457.54 1917.84C1456.17 1917.84 1455.34 1916.46 1455.34 1913.91C1455.34 1911.38 1456.17 1909.98 1457.54 1909.98C1458.91 1909.98 1459.75 1911.38 1459.75 1913.91C1459.75 1916.46 1458.92 1917.84 1457.54 1917.84ZM1466.44 1919.17C1468.79 1919.17 1470.17 1917.25 1470.17 1913.91C1470.17 1910.6 1468.77 1908.68 1466.44 1908.68C1464.1 1908.68 1462.71 1910.6 1462.71 1913.91C1462.71 1917.25 1464.08 1919.16 1466.44 1919.17ZM1466.44 1917.84C1465.06 1917.84 1464.23 1916.46 1464.23 1913.91C1464.24 1911.38 1465.07 1909.98 1466.44 1909.98C1467.81 1909.98 1468.64 1911.38 1468.64 1913.91C1468.64 1916.46 1467.81 1917.84 1466.44 1917.84Z" fill="white"/>
<rect width="200" height="180" transform="translate(300 1972)" fill="#7BD785"/>
<path d="M328.524 2123.14C330.602 2123.14 332.129 2121.9 332.124 2120.21C332.129 2118.92 331.348 2117.99 329.996 2117.78V2117.71C331.06 2117.43 331.751 2116.6 331.746 2115.45C331.751 2113.96 330.523 2112.68 328.564 2112.68C326.695 2112.68 325.193 2113.81 325.143 2115.46H326.63C326.665 2114.53 327.545 2113.96 328.544 2113.96C329.583 2113.96 330.264 2114.59 330.259 2115.53C330.264 2116.52 329.474 2117.16 328.345 2117.16H327.485V2118.42H328.345C329.757 2118.42 330.572 2119.13 330.572 2120.16C330.572 2121.15 329.712 2121.82 328.514 2121.82C327.411 2121.82 326.55 2121.25 326.491 2120.35H324.93C324.994 2122.01 326.466 2123.14 328.524 2123.14ZM337.408 2123.17C339.759 2123.17 341.136 2121.25 341.136 2117.91C341.136 2114.6 339.739 2112.68 337.408 2112.68C335.071 2112.68 333.679 2114.6 333.674 2117.91C333.674 2121.25 335.051 2123.16 337.408 2123.17ZM337.408 2121.84C336.03 2121.84 335.2 2120.46 335.2 2117.91C335.205 2115.38 336.035 2113.98 337.408 2113.98C338.775 2113.98 339.61 2115.38 339.61 2117.91C339.61 2120.46 338.78 2121.84 337.408 2121.84ZM346.305 2123.17C348.656 2123.17 350.033 2121.25 350.033 2117.91C350.033 2114.6 348.636 2112.68 346.305 2112.68C343.968 2112.68 342.576 2114.6 342.571 2117.91C342.571 2121.25 343.948 2123.16 346.305 2123.17ZM346.305 2121.84C344.928 2121.84 344.097 2120.46 344.097 2117.91C344.102 2115.38 344.933 2113.98 346.305 2113.98C347.672 2113.98 348.507 2115.38 348.507 2117.91C348.507 2120.46 347.677 2121.84 346.305 2121.84Z" fill="#07260A"/>
<rect width="200" height="180" transform="translate(524 1972)" fill="#C3E5C6"/>
<path d="M548.979 2123H555.681V2121.68H551.097V2121.61L553.121 2119.49C554.985 2117.61 555.517 2116.71 555.517 2115.57C555.517 2113.93 554.185 2112.68 552.266 2112.68C550.362 2112.68 548.969 2113.91 548.969 2115.77H550.436C550.431 2114.68 551.137 2113.96 552.236 2113.96C553.27 2113.96 554.055 2114.6 554.055 2115.61C554.055 2116.51 553.518 2117.16 552.425 2118.32L548.979 2121.89V2123ZM560.97 2123.17C563.322 2123.17 564.699 2121.25 564.699 2117.91C564.699 2114.6 563.302 2112.68 560.97 2112.68C558.633 2112.68 557.241 2114.6 557.236 2117.91C557.236 2121.25 558.614 2123.16 560.97 2123.17ZM560.97 2121.84C559.593 2121.84 558.763 2120.46 558.763 2117.91C558.768 2115.38 559.598 2113.98 560.97 2113.98C562.337 2113.98 563.172 2115.38 563.172 2117.91C563.172 2120.46 562.342 2121.84 560.97 2121.84ZM569.867 2123.17C572.219 2123.17 573.596 2121.25 573.596 2117.91C573.596 2114.6 572.199 2112.68 569.867 2112.68C567.531 2112.68 566.139 2114.6 566.134 2117.91C566.134 2121.25 567.511 2123.16 569.867 2123.17ZM569.867 2121.84C568.49 2121.84 567.66 2120.46 567.66 2117.91C567.665 2115.38 568.495 2113.98 569.867 2113.98C571.234 2113.98 572.07 2115.38 572.07 2117.91C572.07 2120.46 571.239 2121.84 569.867 2121.84Z" fill="#07260A"/>
<rect width="200" height="180" transform="translate(748 1972)" fill="#E1F7E3"/>
<path d="M776.842 2112.82H775.346L772.805 2114.48V2115.95L775.241 2114.36H775.301V2123H776.842V2112.82ZM783.001 2123.17C785.353 2123.17 786.73 2121.25 786.73 2117.91C786.73 2114.6 785.333 2112.68 783.001 2112.68C780.665 2112.68 779.273 2114.6 779.268 2117.91C779.268 2121.25 780.645 2123.16 783.001 2123.17ZM783.001 2121.84C781.624 2121.84 780.794 2120.46 780.794 2117.91C780.799 2115.38 781.629 2113.98 783.001 2113.98C784.369 2113.98 785.204 2115.38 785.204 2117.91C785.204 2120.46 784.373 2121.84 783.001 2121.84ZM791.898 2123.17C794.25 2123.17 795.627 2121.25 795.627 2117.91C795.627 2114.6 794.23 2112.68 791.898 2112.68C789.562 2112.68 788.17 2114.6 788.165 2117.91C788.165 2121.25 789.542 2123.16 791.898 2123.17ZM791.898 2121.84C790.521 2121.84 789.691 2120.46 789.691 2117.91C789.696 2115.38 790.526 2113.98 791.898 2113.98C793.266 2113.98 794.101 2115.38 794.101 2117.91C794.101 2120.46 793.271 2121.84 791.898 2121.84Z" fill="#07260A"/>
<path d="M304.496 2232H307.095L310.014 2221.79H310.128L313.04 2232H315.639L319.744 2217.45H316.911L314.29 2228.15H314.162L311.357 2217.45H308.778L305.98 2228.14H305.845L303.224 2217.45H300.391L304.496 2232ZM323.484 2232.22C325.195 2232.22 326.218 2231.42 326.687 2230.5H326.772V2232H329.244V2224.7C329.244 2221.82 326.893 2220.95 324.812 2220.95C322.518 2220.95 320.756 2221.97 320.188 2223.96L322.589 2224.3C322.844 2223.56 323.569 2222.92 324.826 2222.92C326.019 2222.92 326.673 2223.53 326.673 2224.6V2224.64C326.673 2225.38 325.898 2225.42 323.974 2225.62C321.857 2225.85 319.833 2226.48 319.833 2228.94C319.833 2231.08 321.403 2232.22 323.484 2232.22ZM324.151 2230.33C323.079 2230.33 322.312 2229.84 322.312 2228.9C322.312 2227.91 323.171 2227.5 324.322 2227.33C324.996 2227.24 326.346 2227.07 326.68 2226.8V2228.09C326.68 2229.3 325.7 2230.33 324.151 2230.33ZM331.829 2232H334.4V2225.59C334.4 2224.2 335.444 2223.22 336.857 2223.22C337.29 2223.22 337.83 2223.3 338.05 2223.37V2221.01C337.816 2220.96 337.411 2220.93 337.127 2220.93C335.877 2220.93 334.833 2221.64 334.435 2222.91H334.322V2221.09H331.829V2232ZM342.33 2225.61C342.33 2224.03 343.281 2223.12 344.638 2223.12C345.966 2223.12 346.761 2224 346.761 2225.45V2232H349.332V2225.05C349.339 2222.44 347.848 2220.95 345.597 2220.95C343.963 2220.95 342.841 2221.73 342.344 2222.94H342.216V2221.09H339.759V2232H342.33V2225.61ZM351.946 2232H354.517V2221.09H351.946V2232ZM353.239 2219.54C354.055 2219.54 354.723 2218.92 354.723 2218.15C354.723 2217.38 354.055 2216.75 353.239 2216.75C352.415 2216.75 351.747 2217.38 351.747 2218.15C351.747 2218.92 352.415 2219.54 353.239 2219.54ZM359.732 2225.61C359.732 2224.03 360.684 2223.12 362.04 2223.12C363.368 2223.12 364.164 2224 364.164 2225.45V2232H366.735V2225.05C366.742 2222.44 365.25 2220.95 362.999 2220.95C361.365 2220.95 360.243 2221.73 359.746 2222.94H359.618V2221.09H357.161V2232H359.732V2225.61ZM374.093 2236.32C377.04 2236.32 379.213 2234.97 379.213 2232.18V2221.09H376.678V2222.89H376.536C376.145 2222.11 375.328 2220.95 373.404 2220.95C370.882 2220.95 368.901 2222.92 368.901 2226.51C368.901 2230.07 370.882 2231.84 373.397 2231.84C375.265 2231.84 376.138 2230.84 376.536 2230.04H376.664V2232.11C376.664 2233.71 375.598 2234.37 374.135 2234.37C372.587 2234.37 371.905 2233.64 371.593 2233L369.277 2233.56C369.746 2235.09 371.316 2236.32 374.093 2236.32ZM374.114 2229.83C372.417 2229.83 371.522 2228.51 371.522 2226.5C371.522 2224.51 372.402 2223.06 374.114 2223.06C375.769 2223.06 376.678 2224.43 376.678 2226.5C376.678 2228.58 375.755 2229.83 374.114 2229.83Z" fill="#331D06"/>
<rect width="200" height="180" transform="translate(300 2262)" fill="#331D06"/>
<path d="M328.365 2402.68C326.227 2402.66 324.83 2404.2 324.83 2406.12C324.835 2408.07 326.242 2409.47 328.007 2409.47C329.086 2409.47 330.011 2408.94 330.533 2408.09H330.612C330.607 2410.43 329.727 2411.8 328.236 2411.8C327.261 2411.8 326.635 2411.2 326.436 2410.33H324.92C325.143 2411.98 326.416 2413.14 328.236 2413.14C330.602 2413.14 332.084 2411.11 332.084 2407.54C332.079 2403.82 330.18 2402.69 328.365 2402.68ZM328.37 2403.97C329.548 2403.97 330.418 2404.97 330.418 2406.09C330.423 2407.22 329.504 2408.22 328.34 2408.22C327.172 2408.22 326.327 2407.28 326.322 2406.1C326.322 2404.92 327.202 2403.97 328.37 2403.97ZM337.285 2413.17C339.636 2413.17 341.013 2411.25 341.013 2407.91C341.013 2404.6 339.616 2402.68 337.285 2402.68C334.948 2402.68 333.556 2404.6 333.551 2407.91C333.551 2411.25 334.928 2413.16 337.285 2413.17ZM337.285 2411.84C335.907 2411.84 335.077 2410.46 335.077 2407.91C335.082 2405.38 335.912 2403.98 337.285 2403.98C338.652 2403.98 339.487 2405.38 339.487 2407.91C339.487 2410.46 338.657 2411.84 337.285 2411.84ZM346.182 2413.17C348.533 2413.17 349.91 2411.25 349.91 2407.91C349.91 2404.6 348.513 2402.68 346.182 2402.68C343.845 2402.68 342.453 2404.6 342.448 2407.91C342.448 2411.25 343.825 2413.16 346.182 2413.17ZM346.182 2411.84C344.805 2411.84 343.974 2410.46 343.974 2407.91C343.979 2405.38 344.809 2403.98 346.182 2403.98C347.549 2403.98 348.384 2405.38 348.384 2407.91C348.384 2410.46 347.554 2411.84 346.182 2411.84Z" fill="white"/>
<rect width="200" height="180" transform="translate(524 2262)" fill="#65390C"/>
<path d="M552.42 2413.14C554.538 2413.14 556.034 2411.94 556.044 2410.29C556.034 2409 555.134 2407.92 553.996 2407.72V2407.66C554.985 2407.42 555.656 2406.49 555.666 2405.39C555.656 2403.84 554.284 2402.68 552.42 2402.68C550.536 2402.68 549.163 2403.84 549.173 2405.39C549.163 2406.49 549.835 2407.42 550.844 2407.66V2407.72C549.685 2407.92 548.786 2409 548.795 2410.29C548.786 2411.94 550.282 2413.14 552.42 2413.14ZM552.42 2411.88C551.147 2411.88 550.342 2411.21 550.352 2410.19C550.342 2409.13 551.217 2408.37 552.42 2408.37C553.603 2408.37 554.478 2409.13 554.488 2410.19C554.478 2411.21 553.678 2411.88 552.42 2411.88ZM552.42 2407.14C551.391 2407.14 550.66 2406.49 550.67 2405.52C550.66 2404.57 551.366 2403.94 552.42 2403.94C553.454 2403.94 554.16 2404.57 554.17 2405.52C554.16 2406.49 553.434 2407.14 552.42 2407.14ZM561.23 2413.17C563.581 2413.17 564.959 2411.25 564.959 2407.91C564.959 2404.6 563.562 2402.68 561.23 2402.68C558.893 2402.68 557.501 2404.6 557.496 2407.91C557.496 2411.25 558.873 2413.16 561.23 2413.17ZM561.23 2411.84C559.853 2411.84 559.022 2410.46 559.022 2407.91C559.027 2405.38 559.858 2403.98 561.23 2403.98C562.597 2403.98 563.432 2405.38 563.432 2407.91C563.432 2410.46 562.602 2411.84 561.23 2411.84ZM570.127 2413.17C572.479 2413.17 573.856 2411.25 573.856 2407.91C573.856 2404.6 572.459 2402.68 570.127 2402.68C567.79 2402.68 566.398 2404.6 566.393 2407.91C566.393 2411.25 567.77 2413.16 570.127 2413.17ZM570.127 2411.84C568.75 2411.84 567.92 2410.46 567.92 2407.91C567.925 2405.38 568.755 2403.98 570.127 2403.98C571.494 2403.98 572.329 2405.38 572.329 2407.91C572.329 2410.46 571.499 2411.84 570.127 2411.84Z" fill="white"/>
<rect width="200" height="180" transform="translate(748 2262)" fill="#985613"/>
<path d="M773.322 2413H774.928L779.358 2404.18V2402.82H772.626V2404.14H777.767V2404.21L773.322 2413ZM784.273 2413.17C786.624 2413.17 788.002 2411.25 788.002 2407.91C788.002 2404.6 786.604 2402.68 784.273 2402.68C781.936 2402.68 780.544 2404.6 780.539 2407.91C780.539 2411.25 781.916 2413.16 784.273 2413.17ZM784.273 2411.84C782.896 2411.84 782.065 2410.46 782.065 2407.91C782.07 2405.38 782.901 2403.98 784.273 2403.98C785.64 2403.98 786.475 2405.38 786.475 2407.91C786.475 2410.46 785.645 2411.84 784.273 2411.84ZM793.17 2413.17C795.521 2413.17 796.899 2411.25 796.899 2407.91C796.899 2404.6 795.502 2402.68 793.17 2402.68C790.833 2402.68 789.441 2404.6 789.436 2407.91C789.436 2411.25 790.813 2413.16 793.17 2413.17ZM793.17 2411.84C791.793 2411.84 790.963 2410.46 790.963 2407.91C790.968 2405.38 791.798 2403.98 793.17 2403.98C794.537 2403.98 795.372 2405.38 795.372 2407.91C795.372 2410.46 794.542 2411.84 793.17 2411.84Z" fill="white"/>
<rect width="200" height="180" transform="translate(972 2262)" fill="#CC7319"/>
<path d="M1000.53 2413.14C1002.66 2413.16 1004.07 2411.63 1004.07 2409.67C1004.07 2407.73 1002.66 2406.33 1000.89 2406.33C999.818 2406.33 998.888 2406.85 998.366 2407.71H998.292C998.297 2405.39 999.172 2404.02 1000.66 2404.02C1001.64 2404.02 1002.26 2404.62 1002.47 2405.46H1003.98C1003.75 2403.85 1002.48 2402.68 1000.66 2402.68C998.297 2402.68 996.82 2404.71 996.82 2408.25C996.815 2412 998.724 2413.12 1000.53 2413.14ZM1000.53 2411.85C999.346 2411.85 998.481 2410.85 998.481 2409.71C998.486 2408.57 999.391 2407.58 1000.56 2407.58C1001.73 2407.58 1002.58 2408.52 1002.58 2409.69C1002.58 2410.9 1001.69 2411.85 1000.53 2411.85ZM1009.28 2413.17C1011.64 2413.17 1013.01 2411.25 1013.01 2407.91C1013.01 2404.6 1011.62 2402.68 1009.28 2402.68C1006.95 2402.68 1005.56 2404.6 1005.55 2407.91C1005.55 2411.25 1006.93 2413.16 1009.28 2413.17ZM1009.28 2411.84C1007.91 2411.84 1007.08 2410.46 1007.08 2407.91C1007.08 2405.38 1007.91 2403.98 1009.28 2403.98C1010.65 2403.98 1011.49 2405.38 1011.49 2407.91C1011.49 2410.46 1010.66 2411.84 1009.28 2411.84ZM1018.18 2413.17C1020.53 2413.17 1021.91 2411.25 1021.91 2407.91C1021.91 2404.6 1020.51 2402.68 1018.18 2402.68C1015.84 2402.68 1014.45 2404.6 1014.45 2407.91C1014.45 2411.25 1015.83 2413.16 1018.18 2413.17ZM1018.18 2411.84C1016.8 2411.84 1015.97 2410.46 1015.97 2407.91C1015.98 2405.38 1016.81 2403.98 1018.18 2403.98C1019.55 2403.98 1020.38 2405.38 1020.38 2407.91C1020.38 2410.46 1019.55 2411.84 1018.18 2411.84Z" fill="white"/>
<rect width="200" height="180" transform="translate(1196 2262)" fill="#FD8E1F"/>
<path d="M1224.34 2413.14C1226.39 2413.14 1227.85 2411.69 1227.85 2409.71C1227.85 2407.74 1226.48 2406.31 1224.62 2406.31C1223.87 2406.31 1223.17 2406.6 1222.77 2406.98H1222.71L1223.03 2404.14H1227.35V2402.82H1221.75L1221.18 2407.95L1222.59 2408.16C1222.97 2407.81 1223.66 2407.58 1224.28 2407.58C1225.48 2407.59 1226.36 2408.5 1226.36 2409.74C1226.36 2410.96 1225.51 2411.85 1224.34 2411.85C1223.36 2411.85 1222.58 2411.22 1222.5 2410.35H1221C1221.06 2411.97 1222.47 2413.14 1224.34 2413.14ZM1233.07 2413.17C1235.42 2413.17 1236.79 2411.25 1236.79 2407.91C1236.79 2404.6 1235.4 2402.68 1233.07 2402.68C1230.73 2402.68 1229.34 2404.6 1229.33 2407.91C1229.33 2411.25 1230.71 2413.16 1233.07 2413.17ZM1233.07 2411.84C1231.69 2411.84 1230.86 2410.46 1230.86 2407.91C1230.86 2405.38 1231.69 2403.98 1233.07 2403.98C1234.43 2403.98 1235.27 2405.38 1235.27 2407.91C1235.27 2410.46 1234.44 2411.84 1233.07 2411.84ZM1241.96 2413.17C1244.31 2413.17 1245.69 2411.25 1245.69 2407.91C1245.69 2404.6 1244.29 2402.68 1241.96 2402.68C1239.63 2402.68 1238.23 2404.6 1238.23 2407.91C1238.23 2411.25 1239.61 2413.16 1241.96 2413.17ZM1241.96 2411.84C1240.59 2411.84 1239.76 2410.46 1239.76 2407.91C1239.76 2405.38 1240.59 2403.98 1241.96 2403.98C1243.33 2403.98 1244.17 2405.38 1244.17 2407.91C1244.17 2410.46 1243.34 2411.84 1241.96 2411.84Z" fill="white"/>
<rect width="200" height="180" transform="translate(1420 2262)" fill="#FDA54C"/>
<path d="M1444.77 2411.01H1449.59V2413H1451.06V2411.01H1452.41V2409.71H1451.06V2402.82H1449.17L1444.77 2409.77V2411.01ZM1449.6 2409.71H1446.38V2409.63L1449.52 2404.65H1449.6V2409.71ZM1457.54 2413.17C1459.9 2413.17 1461.27 2411.25 1461.27 2407.91C1461.27 2404.6 1459.88 2402.68 1457.54 2402.68C1455.21 2402.68 1453.82 2404.6 1453.81 2407.91C1453.81 2411.25 1455.19 2413.16 1457.54 2413.17ZM1457.54 2411.84C1456.17 2411.84 1455.34 2410.46 1455.34 2407.91C1455.34 2405.38 1456.17 2403.98 1457.54 2403.98C1458.91 2403.98 1459.75 2405.38 1459.75 2407.91C1459.75 2410.46 1458.92 2411.84 1457.54 2411.84ZM1466.44 2413.17C1468.79 2413.17 1470.17 2411.25 1470.17 2407.91C1470.17 2404.6 1468.77 2402.68 1466.44 2402.68C1464.1 2402.68 1462.71 2404.6 1462.71 2407.91C1462.71 2411.25 1464.08 2413.16 1466.44 2413.17ZM1466.44 2411.84C1465.06 2411.84 1464.23 2410.46 1464.23 2407.91C1464.24 2405.38 1465.07 2403.98 1466.44 2403.98C1467.81 2403.98 1468.64 2405.38 1468.64 2407.91C1468.64 2410.46 1467.81 2411.84 1466.44 2411.84Z" fill="white"/>
<rect width="200" height="180" transform="translate(300 2466)" fill="#FEBC79"/>
<path d="M328.524 2617.14C330.602 2617.14 332.129 2615.9 332.124 2614.21C332.129 2612.92 331.348 2611.99 329.996 2611.78V2611.71C331.06 2611.43 331.751 2610.6 331.746 2609.45C331.751 2607.96 330.523 2606.68 328.564 2606.68C326.695 2606.68 325.193 2607.81 325.143 2609.46H326.63C326.665 2608.53 327.545 2607.96 328.544 2607.96C329.583 2607.96 330.264 2608.59 330.259 2609.53C330.264 2610.52 329.474 2611.16 328.345 2611.16H327.485V2612.42H328.345C329.757 2612.42 330.572 2613.13 330.572 2614.16C330.572 2615.15 329.712 2615.82 328.514 2615.82C327.411 2615.82 326.55 2615.25 326.491 2614.35H324.93C324.994 2616.01 326.466 2617.14 328.524 2617.14ZM337.408 2617.17C339.759 2617.17 341.136 2615.25 341.136 2611.91C341.136 2608.6 339.739 2606.68 337.408 2606.68C335.071 2606.68 333.679 2608.6 333.674 2611.91C333.674 2615.25 335.051 2617.16 337.408 2617.17ZM337.408 2615.84C336.03 2615.84 335.2 2614.46 335.2 2611.91C335.205 2609.38 336.035 2607.98 337.408 2607.98C338.775 2607.98 339.61 2609.38 339.61 2611.91C339.61 2614.46 338.78 2615.84 337.408 2615.84ZM346.305 2617.17C348.656 2617.17 350.033 2615.25 350.033 2611.91C350.033 2608.6 348.636 2606.68 346.305 2606.68C343.968 2606.68 342.576 2608.6 342.571 2611.91C342.571 2615.25 343.948 2617.16 346.305 2617.17ZM346.305 2615.84C344.928 2615.84 344.097 2614.46 344.097 2611.91C344.102 2609.38 344.933 2607.98 346.305 2607.98C347.672 2607.98 348.507 2609.38 348.507 2611.91C348.507 2614.46 347.677 2615.84 346.305 2615.84Z" fill="#331D06"/>
<rect width="200" height="180" transform="translate(524 2466)" fill="#FED2A5"/>
<path d="M548.979 2617H555.681V2615.68H551.097V2615.61L553.121 2613.49C554.985 2611.61 555.517 2610.71 555.517 2609.57C555.517 2607.93 554.185 2606.68 552.266 2606.68C550.362 2606.68 548.969 2607.91 548.969 2609.77H550.436C550.431 2608.68 551.137 2607.96 552.236 2607.96C553.27 2607.96 554.055 2608.6 554.055 2609.61C554.055 2610.51 553.518 2611.16 552.425 2612.32L548.979 2615.89V2617ZM560.97 2617.17C563.322 2617.17 564.699 2615.25 564.699 2611.91C564.699 2608.6 563.302 2606.68 560.97 2606.68C558.633 2606.68 557.241 2608.6 557.236 2611.91C557.236 2615.25 558.614 2617.16 560.97 2617.17ZM560.97 2615.84C559.593 2615.84 558.763 2614.46 558.763 2611.91C558.768 2609.38 559.598 2607.98 560.97 2607.98C562.337 2607.98 563.172 2609.38 563.172 2611.91C563.172 2614.46 562.342 2615.84 560.97 2615.84ZM569.867 2617.17C572.219 2617.17 573.596 2615.25 573.596 2611.91C573.596 2608.6 572.199 2606.68 569.867 2606.68C567.531 2606.68 566.139 2608.6 566.134 2611.91C566.134 2615.25 567.511 2617.16 569.867 2617.17ZM569.867 2615.84C568.49 2615.84 567.66 2614.46 567.66 2611.91C567.665 2609.38 568.495 2607.98 569.867 2607.98C571.234 2607.98 572.07 2609.38 572.07 2611.91C572.07 2614.46 571.239 2615.84 569.867 2615.84Z" fill="#331D06"/>
<rect width="200" height="180" transform="translate(748 2466)" fill="#FFF2E6"/>
<path d="M776.842 2606.82H775.346L772.805 2608.48V2609.95L775.241 2608.36H775.301V2617H776.842V2606.82ZM783.001 2617.17C785.353 2617.17 786.73 2615.25 786.73 2611.91C786.73 2608.6 785.333 2606.68 783.001 2606.68C780.665 2606.68 779.273 2608.6 779.268 2611.91C779.268 2615.25 780.645 2617.16 783.001 2617.17ZM783.001 2615.84C781.624 2615.84 780.794 2614.46 780.794 2611.91C780.799 2609.38 781.629 2607.98 783.001 2607.98C784.369 2607.98 785.204 2609.38 785.204 2611.91C785.204 2614.46 784.373 2615.84 783.001 2615.84ZM791.898 2617.17C794.25 2617.17 795.627 2615.25 795.627 2611.91C795.627 2608.6 794.23 2606.68 791.898 2606.68C789.562 2606.68 788.17 2608.6 788.165 2611.91C788.165 2615.25 789.542 2617.16 791.898 2617.17ZM791.898 2615.84C790.521 2615.84 789.691 2614.46 789.691 2611.91C789.696 2609.38 790.526 2607.98 791.898 2607.98C793.266 2607.98 794.101 2609.38 794.101 2611.91C794.101 2614.46 793.271 2615.84 791.898 2615.84Z" fill="#331D06"/>
<path d="M306.364 2726C310.795 2726 313.423 2723.26 313.423 2718.71C313.423 2714.18 310.795 2711.45 306.463 2711.45H301.435V2726H306.364ZM304.07 2723.72V2713.73H306.314C309.268 2713.73 310.81 2715.38 310.81 2718.71C310.81 2722.06 309.268 2723.72 306.236 2723.72H304.07ZM318.952 2726.22C320.664 2726.22 321.687 2725.42 322.156 2724.5H322.241V2726H324.712V2718.7C324.712 2715.82 322.362 2714.95 320.281 2714.95C317.987 2714.95 316.225 2715.97 315.657 2717.96L318.058 2718.3C318.313 2717.56 319.038 2716.92 320.295 2716.92C321.488 2716.92 322.141 2717.53 322.141 2718.6V2718.64C322.141 2719.38 321.367 2719.42 319.442 2719.62C317.326 2719.85 315.302 2720.48 315.302 2722.94C315.302 2725.08 316.871 2726.22 318.952 2726.22ZM319.62 2724.33C318.548 2724.33 317.781 2723.84 317.781 2722.9C317.781 2721.91 318.64 2721.5 319.79 2721.33C320.465 2721.24 321.815 2721.07 322.148 2720.8V2722.09C322.148 2723.3 321.168 2724.33 319.62 2724.33ZM329.869 2719.61C329.869 2718.03 330.82 2717.12 332.177 2717.12C333.505 2717.12 334.3 2718 334.3 2719.45V2726H336.871V2719.05C336.879 2716.44 335.387 2714.95 333.136 2714.95C331.502 2714.95 330.38 2715.73 329.883 2716.94H329.755V2715.09H327.298V2726H329.869V2719.61ZM344.229 2730.32C347.177 2730.32 349.35 2728.97 349.35 2726.18V2715.09H346.815V2716.89H346.673C346.282 2716.11 345.465 2714.95 343.54 2714.95C341.019 2714.95 339.038 2716.92 339.038 2720.51C339.038 2724.07 341.019 2725.84 343.533 2725.84C345.401 2725.84 346.275 2724.84 346.673 2724.04H346.8V2726.11C346.8 2727.71 345.735 2728.37 344.272 2728.37C342.724 2728.37 342.042 2727.64 341.729 2727L339.414 2727.56C339.883 2729.09 341.452 2730.32 344.229 2730.32ZM344.251 2723.83C342.553 2723.83 341.658 2722.51 341.658 2720.5C341.658 2718.51 342.539 2717.06 344.251 2717.06C345.906 2717.06 346.815 2718.43 346.815 2720.5C346.815 2722.58 345.891 2723.83 344.251 2723.83ZM356.815 2726.21C359.357 2726.21 361.104 2724.97 361.559 2723.07L359.158 2722.8C358.81 2723.73 357.958 2724.21 356.85 2724.21C355.188 2724.21 354.087 2723.12 354.066 2721.25H361.665V2720.46C361.665 2716.63 359.364 2714.95 356.68 2714.95C353.555 2714.95 351.516 2717.24 351.516 2720.61C351.516 2724.03 353.526 2726.21 356.815 2726.21ZM354.073 2719.52C354.151 2718.12 355.181 2716.95 356.715 2716.95C358.192 2716.95 359.187 2718.03 359.201 2719.52H354.073ZM363.841 2726H366.412V2719.59C366.412 2718.2 367.456 2717.22 368.869 2717.22C369.302 2717.22 369.842 2717.3 370.062 2717.37V2715.01C369.828 2714.96 369.423 2714.93 369.139 2714.93C367.889 2714.93 366.845 2715.64 366.447 2716.91H366.333V2715.09H363.841V2726Z" fill="#331D06"/>
<rect width="200" height="180" transform="translate(300 2756)" fill="#2D0E0E"/>
<path d="M328.365 2896.68C326.227 2896.66 324.83 2898.2 324.83 2900.12C324.835 2902.07 326.242 2903.47 328.007 2903.47C329.086 2903.47 330.011 2902.94 330.533 2902.09H330.612C330.607 2904.43 329.727 2905.8 328.236 2905.8C327.261 2905.8 326.635 2905.2 326.436 2904.33H324.92C325.143 2905.98 326.416 2907.14 328.236 2907.14C330.602 2907.14 332.084 2905.11 332.084 2901.54C332.079 2897.82 330.18 2896.69 328.365 2896.68ZM328.37 2897.97C329.548 2897.97 330.418 2898.97 330.418 2900.09C330.423 2901.22 329.504 2902.22 328.34 2902.22C327.172 2902.22 326.327 2901.28 326.322 2900.1C326.322 2898.92 327.202 2897.97 328.37 2897.97ZM337.285 2907.17C339.636 2907.17 341.013 2905.25 341.013 2901.91C341.013 2898.6 339.616 2896.68 337.285 2896.68C334.948 2896.68 333.556 2898.6 333.551 2901.91C333.551 2905.25 334.928 2907.16 337.285 2907.17ZM337.285 2905.84C335.907 2905.84 335.077 2904.46 335.077 2901.91C335.082 2899.38 335.912 2897.98 337.285 2897.98C338.652 2897.98 339.487 2899.38 339.487 2901.91C339.487 2904.46 338.657 2905.84 337.285 2905.84ZM346.182 2907.17C348.533 2907.17 349.91 2905.25 349.91 2901.91C349.91 2898.6 348.513 2896.68 346.182 2896.68C343.845 2896.68 342.453 2898.6 342.448 2901.91C342.448 2905.25 343.825 2907.16 346.182 2907.17ZM346.182 2905.84C344.805 2905.84 343.974 2904.46 343.974 2901.91C343.979 2899.38 344.809 2897.98 346.182 2897.98C347.549 2897.98 348.384 2899.38 348.384 2901.91C348.384 2904.46 347.554 2905.84 346.182 2905.84Z" fill="white"/>
<rect width="200" height="180" transform="translate(524 2756)" fill="#5B1B1B"/>
<path d="M552.42 2907.14C554.538 2907.14 556.034 2905.94 556.044 2904.29C556.034 2903 555.134 2901.92 553.996 2901.72V2901.66C554.985 2901.42 555.656 2900.49 555.666 2899.39C555.656 2897.84 554.284 2896.68 552.42 2896.68C550.536 2896.68 549.163 2897.84 549.173 2899.39C549.163 2900.49 549.835 2901.42 550.844 2901.66V2901.72C549.685 2901.92 548.786 2903 548.795 2904.29C548.786 2905.94 550.282 2907.14 552.42 2907.14ZM552.42 2905.88C551.147 2905.88 550.342 2905.21 550.352 2904.19C550.342 2903.13 551.217 2902.37 552.42 2902.37C553.603 2902.37 554.478 2903.13 554.488 2904.19C554.478 2905.21 553.678 2905.88 552.42 2905.88ZM552.42 2901.14C551.391 2901.14 550.66 2900.49 550.67 2899.52C550.66 2898.57 551.366 2897.94 552.42 2897.94C553.454 2897.94 554.16 2898.57 554.17 2899.52C554.16 2900.49 553.434 2901.14 552.42 2901.14ZM561.23 2907.17C563.581 2907.17 564.959 2905.25 564.959 2901.91C564.959 2898.6 563.562 2896.68 561.23 2896.68C558.893 2896.68 557.501 2898.6 557.496 2901.91C557.496 2905.25 558.873 2907.16 561.23 2907.17ZM561.23 2905.84C559.853 2905.84 559.022 2904.46 559.022 2901.91C559.027 2899.38 559.858 2897.98 561.23 2897.98C562.597 2897.98 563.432 2899.38 563.432 2901.91C563.432 2904.46 562.602 2905.84 561.23 2905.84ZM570.127 2907.17C572.479 2907.17 573.856 2905.25 573.856 2901.91C573.856 2898.6 572.459 2896.68 570.127 2896.68C567.79 2896.68 566.398 2898.6 566.393 2901.91C566.393 2905.25 567.77 2907.16 570.127 2907.17ZM570.127 2905.84C568.75 2905.84 567.92 2904.46 567.92 2901.91C567.925 2899.38 568.755 2897.98 570.127 2897.98C571.494 2897.98 572.329 2899.38 572.329 2901.91C572.329 2904.46 571.499 2905.84 570.127 2905.84Z" fill="white"/>
<rect width="200" height="180" transform="translate(748 2756)" fill="#882929"/>
<path d="M773.322 2907H774.928L779.358 2898.18V2896.82H772.626V2898.14H777.767V2898.21L773.322 2907ZM784.273 2907.17C786.624 2907.17 788.002 2905.25 788.002 2901.91C788.002 2898.6 786.604 2896.68 784.273 2896.68C781.936 2896.68 780.544 2898.6 780.539 2901.91C780.539 2905.25 781.916 2907.16 784.273 2907.17ZM784.273 2905.84C782.896 2905.84 782.065 2904.46 782.065 2901.91C782.07 2899.38 782.901 2897.98 784.273 2897.98C785.64 2897.98 786.475 2899.38 786.475 2901.91C786.475 2904.46 785.645 2905.84 784.273 2905.84ZM793.17 2907.17C795.521 2907.17 796.899 2905.25 796.899 2901.91C796.899 2898.6 795.502 2896.68 793.17 2896.68C790.833 2896.68 789.441 2898.6 789.436 2901.91C789.436 2905.25 790.813 2907.16 793.17 2907.17ZM793.17 2905.84C791.793 2905.84 790.963 2904.46 790.963 2901.91C790.968 2899.38 791.798 2897.98 793.17 2897.98C794.537 2897.98 795.372 2899.38 795.372 2901.91C795.372 2904.46 794.542 2905.84 793.17 2905.84Z" fill="white"/>
<rect width="200" height="180" transform="translate(972 2756)" fill="#B63636"/>
<path d="M1000.53 2907.14C1002.66 2907.16 1004.07 2905.63 1004.07 2903.67C1004.07 2901.73 1002.66 2900.33 1000.89 2900.33C999.818 2900.33 998.888 2900.85 998.366 2901.71H998.292C998.297 2899.39 999.172 2898.02 1000.66 2898.02C1001.64 2898.02 1002.26 2898.62 1002.47 2899.46H1003.98C1003.75 2897.85 1002.48 2896.68 1000.66 2896.68C998.297 2896.68 996.82 2898.71 996.82 2902.25C996.815 2906 998.724 2907.12 1000.53 2907.14ZM1000.53 2905.85C999.346 2905.85 998.481 2904.85 998.481 2903.71C998.486 2902.57 999.391 2901.58 1000.56 2901.58C1001.73 2901.58 1002.58 2902.52 1002.58 2903.69C1002.58 2904.9 1001.69 2905.85 1000.53 2905.85ZM1009.28 2907.17C1011.64 2907.17 1013.01 2905.25 1013.01 2901.91C1013.01 2898.6 1011.62 2896.68 1009.28 2896.68C1006.95 2896.68 1005.56 2898.6 1005.55 2901.91C1005.55 2905.25 1006.93 2907.16 1009.28 2907.17ZM1009.28 2905.84C1007.91 2905.84 1007.08 2904.46 1007.08 2901.91C1007.08 2899.38 1007.91 2897.98 1009.28 2897.98C1010.65 2897.98 1011.49 2899.38 1011.49 2901.91C1011.49 2904.46 1010.66 2905.84 1009.28 2905.84ZM1018.18 2907.17C1020.53 2907.17 1021.91 2905.25 1021.91 2901.91C1021.91 2898.6 1020.51 2896.68 1018.18 2896.68C1015.84 2896.68 1014.45 2898.6 1014.45 2901.91C1014.45 2905.25 1015.83 2907.16 1018.18 2907.17ZM1018.18 2905.84C1016.8 2905.84 1015.97 2904.46 1015.97 2901.91C1015.98 2899.38 1016.81 2897.98 1018.18 2897.98C1019.55 2897.98 1020.38 2899.38 1020.38 2901.91C1020.38 2904.46 1019.55 2905.84 1018.18 2905.84Z" fill="white"/>
<rect width="200" height="180" transform="translate(1196 2756)" fill="#E34444"/>
<path d="M1224.34 2907.14C1226.39 2907.14 1227.85 2905.69 1227.85 2903.71C1227.85 2901.74 1226.48 2900.31 1224.62 2900.31C1223.87 2900.31 1223.17 2900.6 1222.77 2900.98H1222.71L1223.03 2898.14H1227.35V2896.82H1221.75L1221.18 2901.95L1222.59 2902.16C1222.97 2901.81 1223.66 2901.58 1224.28 2901.58C1225.48 2901.59 1226.36 2902.5 1226.36 2903.74C1226.36 2904.96 1225.51 2905.85 1224.34 2905.85C1223.36 2905.85 1222.58 2905.22 1222.5 2904.35H1221C1221.06 2905.97 1222.47 2907.14 1224.34 2907.14ZM1233.07 2907.17C1235.42 2907.17 1236.79 2905.25 1236.79 2901.91C1236.79 2898.6 1235.4 2896.68 1233.07 2896.68C1230.73 2896.68 1229.34 2898.6 1229.33 2901.91C1229.33 2905.25 1230.71 2907.16 1233.07 2907.17ZM1233.07 2905.84C1231.69 2905.84 1230.86 2904.46 1230.86 2901.91C1230.86 2899.38 1231.69 2897.98 1233.07 2897.98C1234.43 2897.98 1235.27 2899.38 1235.27 2901.91C1235.27 2904.46 1234.44 2905.84 1233.07 2905.84ZM1241.96 2907.17C1244.31 2907.17 1245.69 2905.25 1245.69 2901.91C1245.69 2898.6 1244.29 2896.68 1241.96 2896.68C1239.63 2896.68 1238.23 2898.6 1238.23 2901.91C1238.23 2905.25 1239.61 2907.16 1241.96 2907.17ZM1241.96 2905.84C1240.59 2905.84 1239.76 2904.46 1239.76 2901.91C1239.76 2899.38 1240.59 2897.98 1241.96 2897.98C1243.33 2897.98 1244.17 2899.38 1244.17 2901.91C1244.17 2904.46 1243.34 2905.84 1241.96 2905.84Z" fill="white"/>
<rect width="200" height="180" transform="translate(1420 2756)" fill="#E96969"/>
<path d="M1444.77 2905.01H1449.59V2907H1451.06V2905.01H1452.41V2903.71H1451.06V2896.82H1449.17L1444.77 2903.77V2905.01ZM1449.6 2903.71H1446.38V2903.63L1449.52 2898.65H1449.6V2903.71ZM1457.54 2907.17C1459.9 2907.17 1461.27 2905.25 1461.27 2901.91C1461.27 2898.6 1459.88 2896.68 1457.54 2896.68C1455.21 2896.68 1453.82 2898.6 1453.81 2901.91C1453.81 2905.25 1455.19 2907.16 1457.54 2907.17ZM1457.54 2905.84C1456.17 2905.84 1455.34 2904.46 1455.34 2901.91C1455.34 2899.38 1456.17 2897.98 1457.54 2897.98C1458.91 2897.98 1459.75 2899.38 1459.75 2901.91C1459.75 2904.46 1458.92 2905.84 1457.54 2905.84ZM1466.44 2907.17C1468.79 2907.17 1470.17 2905.25 1470.17 2901.91C1470.17 2898.6 1468.77 2896.68 1466.44 2896.68C1464.1 2896.68 1462.71 2898.6 1462.71 2901.91C1462.71 2905.25 1464.08 2907.16 1466.44 2907.17ZM1466.44 2905.84C1465.06 2905.84 1464.23 2904.46 1464.23 2901.91C1464.24 2899.38 1465.07 2897.98 1466.44 2897.98C1467.81 2897.98 1468.64 2899.38 1468.64 2901.91C1468.64 2904.46 1467.81 2905.84 1466.44 2905.84Z" fill="white"/>
<rect width="200" height="180" transform="translate(300 2960)" fill="#EE8F8F"/>
<path d="M328.524 3111.14C330.602 3111.14 332.129 3109.9 332.124 3108.21C332.129 3106.92 331.348 3105.99 329.996 3105.78V3105.71C331.06 3105.43 331.751 3104.6 331.746 3103.45C331.751 3101.96 330.523 3100.68 328.564 3100.68C326.695 3100.68 325.193 3101.81 325.143 3103.46H326.63C326.665 3102.53 327.545 3101.96 328.544 3101.96C329.583 3101.96 330.264 3102.59 330.259 3103.53C330.264 3104.52 329.474 3105.16 328.345 3105.16H327.485V3106.42H328.345C329.757 3106.42 330.572 3107.13 330.572 3108.16C330.572 3109.15 329.712 3109.82 328.514 3109.82C327.411 3109.82 326.55 3109.25 326.491 3108.35H324.93C324.994 3110.01 326.466 3111.14 328.524 3111.14ZM337.408 3111.17C339.759 3111.17 341.136 3109.25 341.136 3105.91C341.136 3102.6 339.739 3100.68 337.408 3100.68C335.071 3100.68 333.679 3102.6 333.674 3105.91C333.674 3109.25 335.051 3111.16 337.408 3111.17ZM337.408 3109.84C336.03 3109.84 335.2 3108.46 335.2 3105.91C335.205 3103.38 336.035 3101.98 337.408 3101.98C338.775 3101.98 339.61 3103.38 339.61 3105.91C339.61 3108.46 338.78 3109.84 337.408 3109.84ZM346.305 3111.17C348.656 3111.17 350.033 3109.25 350.033 3105.91C350.033 3102.6 348.636 3100.68 346.305 3100.68C343.968 3100.68 342.576 3102.6 342.571 3105.91C342.571 3109.25 343.948 3111.16 346.305 3111.17ZM346.305 3109.84C344.928 3109.84 344.097 3108.46 344.097 3105.91C344.102 3103.38 344.933 3101.98 346.305 3101.98C347.672 3101.98 348.507 3103.38 348.507 3105.91C348.507 3108.46 347.677 3109.84 346.305 3109.84Z" fill="#2D0E0E"/>
<rect width="200" height="180" transform="translate(524 2960)" fill="#F4C8C8"/>
<path d="M548.979 3111H555.681V3109.68H551.097V3109.61L553.121 3107.49C554.985 3105.61 555.517 3104.71 555.517 3103.57C555.517 3101.93 554.185 3100.68 552.266 3100.68C550.362 3100.68 548.969 3101.91 548.969 3103.77H550.436C550.431 3102.68 551.137 3101.96 552.236 3101.96C553.27 3101.96 554.055 3102.6 554.055 3103.61C554.055 3104.51 553.518 3105.16 552.425 3106.32L548.979 3109.89V3111ZM560.97 3111.17C563.322 3111.17 564.699 3109.25 564.699 3105.91C564.699 3102.6 563.302 3100.68 560.97 3100.68C558.633 3100.68 557.241 3102.6 557.236 3105.91C557.236 3109.25 558.614 3111.16 560.97 3111.17ZM560.97 3109.84C559.593 3109.84 558.763 3108.46 558.763 3105.91C558.768 3103.38 559.598 3101.98 560.97 3101.98C562.337 3101.98 563.172 3103.38 563.172 3105.91C563.172 3108.46 562.342 3109.84 560.97 3109.84ZM569.867 3111.17C572.219 3111.17 573.596 3109.25 573.596 3105.91C573.596 3102.6 572.199 3100.68 569.867 3100.68C567.531 3100.68 566.139 3102.6 566.134 3105.91C566.134 3109.25 567.511 3111.16 569.867 3111.17ZM569.867 3109.84C568.49 3109.84 567.66 3108.46 567.66 3105.91C567.665 3103.38 568.495 3101.98 569.867 3101.98C571.234 3101.98 572.07 3103.38 572.07 3105.91C572.07 3108.46 571.239 3109.84 569.867 3109.84Z" fill="#2D0E0E"/>
<rect width="200" height="180" transform="translate(748 2960)" fill="#FFF0F0"/>
<path d="M776.842 3100.82H775.346L772.805 3102.48V3103.95L775.241 3102.36H775.301V3111H776.842V3100.82ZM783.001 3111.17C785.353 3111.17 786.73 3109.25 786.73 3105.91C786.73 3102.6 785.333 3100.68 783.001 3100.68C780.665 3100.68 779.273 3102.6 779.268 3105.91C779.268 3109.25 780.645 3111.16 783.001 3111.17ZM783.001 3109.84C781.624 3109.84 780.794 3108.46 780.794 3105.91C780.799 3103.38 781.629 3101.98 783.001 3101.98C784.369 3101.98 785.204 3103.38 785.204 3105.91C785.204 3108.46 784.373 3109.84 783.001 3109.84ZM791.898 3111.17C794.25 3111.17 795.627 3109.25 795.627 3105.91C795.627 3102.6 794.23 3100.68 791.898 3100.68C789.562 3100.68 788.17 3102.6 788.165 3105.91C788.165 3109.25 789.542 3111.16 791.898 3111.17ZM791.898 3109.84C790.521 3109.84 789.691 3108.46 789.691 3105.91C789.696 3103.38 790.526 3101.98 791.898 3101.98C793.266 3101.98 794.101 3103.38 794.101 3105.91C794.101 3108.46 793.271 3109.84 791.898 3109.84Z" fill="#2D0E0E"/>
</svg>
