<?xml version="1.0" encoding="UTF-8"?>
<svg xmlns="http://www.w3.org/2000/svg" xmlns:xlink="http://www.w3.org/1999/xlink" width="1151.23" height="480.73" viewBox="0 0 1151.23 480.73">
<defs>
<clipPath id="clip-0">
<path clip-rule="nonzero" d="M 0 0.0273438 L 64 0.0273438 L 64 364 L 0 364 Z M 0 0.0273438 "/>
</clipPath>
<clipPath id="clip-1">
<path clip-rule="nonzero" d="M 114 0.0273438 L 607 0.0273438 L 607 364 L 114 364 Z M 114 0.0273438 "/>
</clipPath>
<clipPath id="clip-2">
<path clip-rule="nonzero" d="M 658 0.0273438 L 1150.460938 0.0273438 L 1150.460938 364 L 658 364 Z M 658 0.0273438 "/>
</clipPath>
<clipPath id="clip-3">
<path clip-rule="nonzero" d="M 1007 415 L 1073 415 L 1073 480.433594 L 1007 480.433594 Z M 1007 415 "/>
</clipPath>
<clipPath id="clip-4">
<path clip-rule="nonzero" d="M 1099 415 L 1150 415 L 1150 480.433594 L 1099 480.433594 Z M 1099 415 "/>
</clipPath>
</defs>
<g clip-path="url(#clip-0)">
<path fill-rule="nonzero" fill="rgb(2.230835%, 2.69928%, 2.798462%)" fill-opacity="1" d="M 0 363.925781 L 0 0.0234375 L 63.207031 0.0234375 L 63.207031 363.925781 L 0 363.925781 "/>
</g>
<g clip-path="url(#clip-1)">
<path fill-rule="nonzero" fill="rgb(2.230835%, 2.69928%, 2.798462%)" fill-opacity="1" d="M 114.519531 0.0234375 L 175.859375 0.0234375 L 543.625 286.386719 L 543.625 0.0234375 L 606.832031 0.0234375 L 606.832031 363.925781 L 545.492188 363.925781 L 177.726562 77.296875 L 177.726562 363.925781 L 114.519531 363.925781 L 114.519531 0.0234375 "/>
</g>
<g clip-path="url(#clip-2)">
<path fill-rule="nonzero" fill="rgb(2.230835%, 2.69928%, 2.798462%)" fill-opacity="1" d="M 842.429688 0.0234375 L 1150.339844 0.0234375 L 1150.460938 58.046875 L 842.429688 58.046875 C 774.691406 58.046875 721.351562 114.996094 721.351562 181.839844 C 721.351562 249.488281 774.957031 305.636719 842.429688 305.636719 L 1150.460938 305.636719 L 1150.460938 363.925781 L 842.429688 363.925781 C 742.421875 363.925781 658.144531 284.246094 658.144531 182.109375 C 658.144531 80.773438 741.085938 0.0234375 842.429688 0.0234375 "/>
</g>
<path fill-rule="nonzero" fill="rgb(94.880676%, 33.885193%, 13.444519%)" fill-opacity="1" d="M 42.34375 471.105469 L 42.34375 479.027344 L 0 479.027344 L 0 417.40625 L 41.992188 417.40625 L 41.992188 425.328125 L 8.800781 425.328125 L 8.800781 444.253906 L 39.523438 444.253906 L 39.523438 452.175781 L 8.800781 452.175781 L 8.800781 471.105469 L 42.34375 471.105469 "/>
<path fill-rule="nonzero" fill="rgb(94.880676%, 33.885193%, 13.444519%)" fill-opacity="1" d="M 136.183594 417.40625 L 136.183594 479.027344 L 127.378906 479.027344 L 127.378906 427.265625 L 108.015625 464.679688 L 100.089844 464.679688 L 80.636719 427.265625 L 80.636719 479.027344 L 72.714844 479.027344 L 72.714844 417.40625 L 85.125 417.40625 L 104.316406 454.90625 L 123.417969 417.40625 L 136.183594 417.40625 "/>
<path fill-rule="nonzero" fill="rgb(94.880676%, 33.885193%, 13.444519%)" fill-opacity="1" d="M 206.257812 446.71875 C 208.542969 444.253906 209.6875 441.261719 209.6875 437.828125 C 209.6875 434.394531 208.542969 431.488281 206.257812 429.027344 C 203.964844 426.558594 201.238281 425.328125 197.980469 425.328125 L 178.4375 425.328125 L 178.4375 450.503906 L 197.980469 450.503906 C 201.238281 450.503906 203.964844 449.273438 206.257812 446.71875 Z M 212.507812 423.390625 C 216.46875 427.351562 218.492188 432.195312 218.492188 437.828125 C 218.492188 443.550781 216.46875 448.390625 212.507812 452.351562 C 208.457031 456.402344 203.613281 458.425781 197.980469 458.425781 L 178.4375 458.425781 L 178.4375 479.027344 L 169.636719 479.027344 L 169.636719 417.40625 L 197.980469 417.40625 C 203.613281 417.40625 208.457031 419.429688 212.507812 423.390625 "/>
<path fill-rule="nonzero" fill="rgb(94.880676%, 33.885193%, 13.444519%)" fill-opacity="1" d="M 255.816406 448.832031 L 276.152344 448.832031 C 279.144531 448.832031 281.699219 447.6875 283.898438 445.3125 C 286.011719 443.023438 287.066406 440.292969 287.066406 437.035156 C 287.066406 433.78125 286.011719 431.050781 283.898438 428.761719 C 281.699219 426.472656 279.144531 425.328125 276.152344 425.328125 L 255.816406 425.328125 Z M 272.808594 456.753906 L 255.816406 456.753906 L 255.816406 479.027344 L 247.015625 479.027344 L 247.015625 417.40625 L 276.152344 417.40625 C 281.523438 417.40625 286.1875 419.34375 290.0625 423.128906 C 293.933594 427 295.871094 431.664062 295.871094 437.035156 C 295.871094 441.351562 294.550781 445.222656 291.996094 448.65625 C 289.445312 452.089844 286.101562 454.464844 282.136719 455.785156 L 297.28125 479.027344 L 287.332031 479.027344 L 272.808594 456.753906 "/>
<path fill-rule="nonzero" fill="rgb(94.880676%, 33.885193%, 13.444519%)" fill-opacity="1" d="M 369.199219 471.105469 L 369.199219 479.027344 L 326.859375 479.027344 L 326.859375 417.40625 L 368.847656 417.40625 L 368.847656 425.328125 L 335.660156 425.328125 L 335.660156 444.253906 L 366.382812 444.253906 L 366.382812 452.175781 L 335.660156 452.175781 L 335.660156 471.105469 L 369.199219 471.105469 "/>
<path fill-rule="nonzero" fill="rgb(94.880676%, 33.885193%, 13.444519%)" fill-opacity="1" d="M 441.914062 471.105469 L 441.914062 479.027344 L 399.574219 479.027344 L 399.574219 417.40625 L 441.5625 417.40625 L 441.5625 425.328125 L 408.375 425.328125 L 408.375 444.253906 L 439.097656 444.253906 L 439.097656 452.175781 L 408.375 452.175781 L 408.375 471.105469 L 441.914062 471.105469 "/>
<path fill-rule="nonzero" fill="rgb(94.880676%, 33.885193%, 13.444519%)" fill-opacity="1" d="M 525.191406 417.40625 L 525.191406 479.027344 L 517.269531 479.027344 L 480.207031 431.136719 L 480.207031 479.027344 L 472.285156 479.027344 L 472.285156 417.40625 L 480.207031 417.40625 L 517.269531 465.292969 L 517.269531 417.40625 L 525.191406 417.40625 "/>
<path fill-rule="nonzero" fill="rgb(94.880676%, 33.885193%, 13.444519%)" fill-opacity="1" d="M 597.289062 464.5 C 601.601562 460.1875 603.714844 454.730469 603.714844 448.214844 C 603.714844 441.703125 601.601562 436.242188 597.289062 431.84375 C 592.976562 427.53125 587.167969 425.328125 579.859375 425.328125 L 567.449219 425.328125 L 567.449219 471.105469 L 579.859375 471.105469 C 587.167969 471.105469 592.976562 468.902344 597.289062 464.5 Z M 603.453125 426.296875 C 609.523438 432.195312 612.519531 439.5 612.519531 448.214844 C 612.519531 456.929688 609.523438 464.238281 603.453125 470.136719 C 597.378906 476.035156 589.542969 479.027344 579.859375 479.027344 L 558.644531 479.027344 L 558.644531 417.40625 L 579.859375 417.40625 C 589.542969 417.40625 597.378906 420.398438 603.453125 426.296875 "/>
<path fill-rule="nonzero" fill="rgb(94.880676%, 33.885193%, 13.444519%)" fill-opacity="1" d="M 642.800781 417.40625 L 651.605469 417.40625 L 651.605469 479.027344 L 642.800781 479.027344 L 642.800781 417.40625 "/>
<path fill-rule="nonzero" fill="rgb(94.880676%, 33.885193%, 13.444519%)" fill-opacity="1" d="M 748.527344 417.40625 L 748.527344 479.027344 L 739.722656 479.027344 L 739.722656 427.265625 L 720.355469 464.679688 L 712.433594 464.679688 L 692.980469 427.265625 L 692.980469 479.027344 L 685.058594 479.027344 L 685.058594 417.40625 L 697.46875 417.40625 L 716.660156 454.90625 L 735.761719 417.40625 L 748.527344 417.40625 "/>
<path fill-rule="nonzero" fill="rgb(94.880676%, 33.885193%, 13.444519%)" fill-opacity="1" d="M 824.320312 471.105469 L 824.320312 479.027344 L 781.980469 479.027344 L 781.980469 417.40625 L 823.96875 417.40625 L 823.96875 425.328125 L 790.78125 425.328125 L 790.78125 444.253906 L 821.503906 444.253906 L 821.503906 452.175781 L 790.78125 452.175781 L 790.78125 471.105469 L 824.320312 471.105469 "/>
<path fill-rule="nonzero" fill="rgb(94.880676%, 33.885193%, 13.444519%)" fill-opacity="1" d="M 907.597656 417.40625 L 907.597656 479.027344 L 899.675781 479.027344 L 862.613281 431.136719 L 862.613281 479.027344 L 854.691406 479.027344 L 854.691406 417.40625 L 862.613281 417.40625 L 899.675781 465.292969 L 899.675781 417.40625 L 907.597656 417.40625 "/>
<path fill-rule="nonzero" fill="rgb(94.880676%, 33.885193%, 13.444519%)" fill-opacity="1" d="M 985.683594 425.328125 L 964.996094 425.328125 L 964.996094 479.027344 L 956.191406 479.027344 L 956.191406 425.328125 L 935.503906 425.328125 L 935.503906 417.40625 L 985.683594 417.40625 L 985.683594 425.328125 "/>
<g clip-path="url(#clip-3)">
<path fill-rule="nonzero" fill="rgb(94.880676%, 33.885193%, 13.444519%)" fill-opacity="1" d="M 1057.074219 465.382812 C 1061.738281 460.628906 1064.027344 454.90625 1064.027344 448.214844 C 1064.027344 441.523438 1061.738281 435.804688 1057.074219 431.050781 C 1052.40625 426.296875 1046.78125 423.917969 1040.175781 423.917969 C 1033.570312 423.917969 1028.023438 426.296875 1023.355469 431.050781 C 1018.699219 435.804688 1016.320312 441.523438 1016.320312 448.214844 C 1016.320312 454.90625 1018.699219 460.628906 1023.355469 465.382812 C 1028.023438 470.136719 1033.570312 472.511719 1040.175781 472.511719 C 1046.78125 472.511719 1052.40625 470.136719 1057.074219 465.382812 Z M 1017.109375 471.015625 C 1010.683594 464.765625 1007.515625 457.105469 1007.515625 448.214844 C 1007.515625 439.324219 1010.683594 431.664062 1017.109375 425.417969 C 1023.445312 419.167969 1031.109375 415.996094 1040.175781 415.996094 C 1049.238281 415.996094 1056.902344 419.167969 1063.328125 425.417969 C 1069.664062 431.664062 1072.832031 439.324219 1072.832031 448.214844 C 1072.832031 457.105469 1069.664062 464.765625 1063.328125 471.015625 C 1056.902344 477.265625 1049.238281 480.433594 1040.175781 480.433594 C 1031.109375 480.433594 1023.445312 477.265625 1017.109375 471.015625 "/>
</g>
<g clip-path="url(#clip-4)">
<path fill-rule="nonzero" fill="rgb(94.880676%, 33.885193%, 13.444519%)" fill-opacity="1" d="M 1106.988281 474.625 C 1102.144531 470.75 1099.683594 466.085938 1099.683594 460.628906 L 1108.488281 460.628906 C 1108.488281 463.886719 1110.066406 466.703125 1113.15625 469.078125 C 1116.234375 471.457031 1120.101562 472.601562 1124.769531 472.601562 C 1128.734375 472.601562 1132.34375 471.71875 1135.601562 470.046875 C 1138.859375 468.375 1140.4375 465.910156 1140.4375 462.652344 C 1140.4375 461.332031 1140.085938 460.1875 1139.46875 459.042969 C 1138.769531 457.988281 1137.980469 457.105469 1137.179688 456.402344 C 1136.300781 455.785156 1134.980469 455.082031 1133.3125 454.378906 C 1131.554688 453.761719 1130.054688 453.234375 1128.90625 452.882812 C 1127.675781 452.617188 1125.917969 452.175781 1123.71875 451.5625 C 1121.25 450.945312 1119.050781 450.242188 1117.203125 449.625 C 1115.355469 449.007812 1113.324219 448.214844 1111.214844 447.160156 C 1109.019531 446.191406 1107.25 445.046875 1105.929688 443.8125 C 1104.609375 442.667969 1103.472656 441.171875 1102.503906 439.324219 C 1101.535156 437.476562 1101.09375 435.539062 1101.09375 433.339844 C 1101.09375 430.257812 1101.882812 427.53125 1103.382812 425.152344 C 1104.882812 422.773438 1106.898438 421.015625 1109.277344 419.695312 C 1111.65625 418.460938 1114.113281 417.492188 1116.671875 416.878906 C 1119.222656 416.261719 1121.691406 415.996094 1124.238281 415.996094 C 1130.84375 415.996094 1136.390625 417.847656 1140.96875 421.453125 C 1145.542969 425.066406 1147.832031 429.464844 1147.832031 434.660156 L 1139.027344 434.660156 C 1139.027344 431.664062 1137.617188 429.113281 1134.8125 427 C 1131.992188 424.886719 1128.464844 423.832031 1124.15625 423.832031 C 1122.039062 423.832031 1120.019531 424.097656 1117.992188 424.535156 C 1115.964844 424.976562 1114.113281 425.945312 1112.445312 427.351562 C 1110.777344 428.851562 1109.898438 430.609375 1109.898438 432.808594 C 1109.898438 434.132812 1110.246094 435.277344 1110.867188 436.242188 C 1111.476562 437.300781 1112.265625 438.179688 1113.15625 438.796875 C 1113.945312 439.5 1115.265625 440.207031 1116.933594 440.820312 C 1118.613281 441.523438 1120.101562 442.054688 1121.339844 442.40625 C 1122.480469 442.757812 1124.238281 443.199219 1126.445312 443.726562 C 1128.90625 444.34375 1131.113281 444.957031 1132.960938 445.574219 C 1134.8125 446.191406 1136.828125 447.070312 1139.027344 448.039062 C 1141.238281 449.097656 1142.996094 450.242188 1144.40625 451.472656 C 1145.722656 452.703125 1146.863281 454.203125 1147.832031 456.050781 C 1148.800781 457.898438 1149.242188 459.835938 1149.242188 462.035156 C 1149.242188 465.292969 1148.453125 468.109375 1146.953125 470.574219 C 1145.375 473.039062 1143.34375 474.976562 1140.796875 476.296875 C 1138.238281 477.707031 1135.691406 478.761719 1132.960938 479.378906 C 1130.222656 480.082031 1127.414062 480.433594 1124.597656 480.433594 C 1117.640625 480.433594 1111.828125 478.496094 1106.988281 474.625 "/>
</g>
</svg>
